<svg width="80" height="80" viewBox="0 0 80 80" fill="none" xmlns="http://www.w3.org/2000/svg">
<circle opacity="0.6" cx="40" cy="40" r="39.25" stroke="white" stroke-width="1.5"/>
<g opacity="0.6">
<path d="M40 58C37.523 58 35.1897 57.5263 33 56.579C30.8103 55.6313 28.9033 54.3453 27.279 52.721C25.6547 51.0967 24.3687 49.1897 23.421 47C22.4737 44.8103 22 42.477 22 40C22 37.5153 22.4737 35.18 23.421 32.994C24.3687 30.8083 25.6547 28.9033 27.279 27.279C28.9033 25.6547 30.8103 24.3687 33 23.421C35.1897 22.4737 37.523 22 40 22C42.4847 22 44.82 22.4737 47.006 23.421C49.1917 24.3687 51.0967 25.6547 52.721 27.279C54.3453 28.9033 55.6313 30.8083 56.579 32.994C57.5263 35.18 58 37.5153 58 40C58 42.477 57.5263 44.8103 56.579 47C55.6313 49.1897 54.3453 51.0967 52.721 52.721C51.0967 54.3453 49.1917 55.6313 47.006 56.579C44.82 57.5263 42.4847 58 40 58ZM40 56.0155C41.1743 54.5078 42.1423 53.027 42.904 51.573C43.6653 50.1193 44.2845 48.4925 44.7615 46.6925H35.2385C35.7668 48.5948 36.3988 50.273 37.1345 51.727C37.8705 53.1807 38.8257 54.6102 40 56.0155ZM37.454 55.7155C36.5207 54.6155 35.6687 53.2558 34.898 51.6365C34.1277 50.0172 33.554 48.3692 33.177 46.6925H25.5075C26.6538 49.1795 28.2788 51.2192 30.3825 52.8115C32.4865 54.4038 34.8437 55.3718 37.454 55.7155ZM42.546 55.7155C45.1563 55.3718 47.5135 54.4038 49.6175 52.8115C51.7212 51.2192 53.3462 49.1795 54.4925 46.6925H46.823C46.318 48.3948 45.6802 50.0557 44.9095 51.675C44.1392 53.2943 43.3513 54.6412 42.546 55.7155ZM24.6925 44.6925H32.7615C32.6102 43.8718 32.5032 43.0723 32.4405 42.294C32.3775 41.516 32.346 40.7513 32.346 40C32.346 39.2487 32.3775 38.484 32.4405 37.706C32.5032 36.9277 32.6102 36.1282 32.7615 35.3075H24.6925C24.4745 35.9998 24.3045 36.7543 24.1825 37.571C24.0608 38.3877 24 39.1973 24 40C24 40.8027 24.0608 41.6123 24.1825 42.429C24.3045 43.2457 24.4745 44.0002 24.6925 44.6925ZM34.7615 44.6925H45.2385C45.3898 43.8718 45.4968 43.0852 45.5595 42.3325C45.6225 41.5802 45.654 40.8027 45.654 40C45.654 39.1973 45.6225 38.4198 45.5595 37.6675C45.4968 36.9148 45.3898 36.1282 45.2385 35.3075H34.7615C34.6102 36.1282 34.5032 36.9148 34.4405 37.6675C34.3775 38.4198 34.346 39.1973 34.346 40C34.346 40.8027 34.3775 41.5802 34.4405 42.3325C34.5032 43.0852 34.6102 43.8718 34.7615 44.6925ZM47.2385 44.6925H55.3075C55.5255 44.0002 55.6955 43.2457 55.8175 42.429C55.9392 41.6123 56 40.8027 56 40C56 39.1973 55.9392 38.3877 55.8175 37.571C55.6955 36.7543 55.5255 35.9998 55.3075 35.3075H47.2385C47.3898 36.1282 47.4968 36.9277 47.5595 37.706C47.6225 38.484 47.654 39.2487 47.654 40C47.654 40.7513 47.6225 41.516 47.5595 42.294C47.4968 43.0723 47.3898 43.8718 47.2385 44.6925ZM46.823 33.3075H54.4925C53.3205 30.7692 51.7147 28.7295 49.675 27.1885C47.6353 25.6475 45.259 24.6667 42.546 24.246C43.4793 25.4743 44.3185 26.8788 45.0635 28.4595C45.8085 30.0405 46.395 31.6565 46.823 33.3075ZM35.2385 33.3075H44.7615C44.2332 31.4308 43.5818 29.7335 42.8075 28.2155C42.0332 26.6975 41.0973 25.2872 40 23.9845C38.9027 25.2872 37.9668 26.6975 37.1925 28.2155C36.4182 29.7335 35.7668 31.4308 35.2385 33.3075ZM25.5075 33.3075H33.177C33.605 31.6565 34.1915 30.0405 34.9365 28.4595C35.6815 26.8788 36.5207 25.4743 37.454 24.246C34.7153 24.6667 32.3327 25.6538 30.306 27.2075C28.279 28.7615 26.6795 30.7948 25.5075 33.3075Z" fill="#E8EAED"/>
</g>
</svg>
