<svg width="80" height="80" viewBox="0 0 80 80" fill="none" xmlns="http://www.w3.org/2000/svg">
<g opacity="0.6">
<path d="M31.4308 48.0918C30.4141 48.9329 29.355 49.3098 28.2537 49.2223C27.1523 49.1348 26.2023 48.7613 25.4036 48.1018C24.6048 47.4421 24.0665 46.5777 23.7887 45.5088C23.5108 44.4395 23.7088 43.3507 24.3824 42.2424L27.8369 36.582C27.1222 36.0527 26.5511 35.3785 26.1234 34.5595C25.6957 33.7405 25.4819 32.8554 25.4819 31.9043C25.4819 30.2709 26.0558 28.8865 27.2038 27.7511C28.352 26.6159 29.752 26.0483 31.4038 26.0483C33.0555 26.0483 34.4553 26.6159 35.6033 27.7511C36.7513 28.8865 37.3252 30.2709 37.3252 31.9043C37.3252 33.5376 36.7513 34.9219 35.6033 36.057C34.4553 37.1922 33.0555 37.7598 31.4038 37.7598C31.0475 37.7598 30.7025 37.734 30.3689 37.6823C30.0353 37.6307 29.7166 37.5422 29.4128 37.4168L25.9039 43.1712C25.4886 43.8534 25.3627 44.5227 25.5261 45.1789C25.6895 45.8352 26.02 46.3682 26.5176 46.778C27.0152 47.1875 27.6085 47.4202 28.2975 47.4762C28.9865 47.5319 29.6498 47.2996 30.2875 46.7793L47.8825 31.9948C48.8717 31.1537 49.9086 30.7729 50.9932 30.8525C52.0774 30.9322 53.0329 31.3013 53.8597 31.9598C54.6867 32.6184 55.2461 33.4828 55.5378 34.5529C55.8295 35.623 55.6272 36.7235 54.9308 37.8543L51.4423 43.5483C52.1569 44.0777 52.7281 44.744 53.1558 45.5473C53.5835 46.3505 53.7973 47.2322 53.7973 48.1924C53.7973 49.8257 53.2151 51.2101 52.0506 52.3456C50.8861 53.4808 49.4863 54.0483 47.8511 54.0483C46.2155 54.0483 44.8238 53.4749 43.6759 52.3281C42.5279 51.1813 41.9539 49.8025 41.9539 48.192C41.9539 46.5814 42.5304 45.203 43.6834 44.0567C44.8363 42.9102 46.2223 42.3369 47.8413 42.3369C48.2012 42.3369 48.551 42.3683 48.8908 42.431C49.2306 42.494 49.5523 42.5882 49.8561 42.7136L53.3752 36.9255C53.7905 36.2433 53.9218 35.5746 53.769 34.9195C53.6165 34.2644 53.292 33.731 52.7956 33.3192C52.2995 32.9076 51.7065 32.6687 51.0166 32.6025C50.327 32.5363 49.6634 32.7746 49.0257 33.3174L31.4308 48.0918ZM31.4038 36.0098C32.5585 36.0098 33.5392 35.6111 34.3459 34.8137C35.1523 34.0159 35.5555 33.0462 35.5555 31.9043C35.5555 30.7621 35.1523 29.7923 34.3459 28.9949C33.5392 28.1972 32.5585 27.7983 31.4038 27.7983C30.2487 27.7983 29.268 28.1972 28.4616 28.9949C27.6549 29.7923 27.2516 30.7621 27.2516 31.9043C27.2516 33.0462 27.6549 34.0159 28.4616 34.8137C29.268 35.6111 30.2487 36.0098 31.4038 36.0098ZM47.8378 52.2983C48.9899 52.2983 49.9762 51.8995 50.7967 51.1018C51.6173 50.3044 52.0276 49.3346 52.0276 48.1924C52.0276 47.0505 51.6173 46.0807 50.7967 45.283C49.9762 44.4856 48.9899 44.0869 47.8378 44.0869C46.6854 44.0869 45.7116 44.4856 44.9164 45.283C44.1212 46.0807 43.7236 47.0505 43.7236 48.1924C43.7236 49.3346 44.1212 50.3044 44.9164 51.1018C45.7116 51.8995 46.6854 52.2983 47.8378 52.2983Z" fill="#E8EAED"/>
<circle cx="40" cy="40" r="39.25" stroke="white" stroke-width="1.5"/>
</g>
</svg>
