<?xml version="1.0" encoding="UTF-8"?>
<!DOCTYPE svg PUBLIC "-//W3C//DTD SVG 1.1//EN" "http://www.w3.org/Graphics/SVG/1.1/DTD/svg11.dtd">
<svg xmlns="http://www.w3.org/2000/svg" version="1.1" width="48px" height="48px" style="shape-rendering:geometricPrecision; text-rendering:geometricPrecision; image-rendering:optimizeQuality; fill-rule:evenodd; clip-rule:evenodd" xmlns:xlink="http://www.w3.org/1999/xlink">
<g><path style="opacity:1" fill="#60cfee" d="M 23.5,5.5 C 19.7675,7.13069 15.7675,8.13069 11.5,8.5C 9.19883,9.95592 6.8655,10.2892 4.5,9.5C 3.60895,10.1098 2.60895,10.4431 1.5,10.5C 3.88953,7.97171 6.88953,6.47171 10.5,6C 14.8206,5.50098 19.1539,5.33432 23.5,5.5 Z"/></g>
<g><path style="opacity:1" fill="#3140b4" d="M 26.5,5.5 C 31.5365,5.41262 36.5365,5.74595 41.5,6.5C 41.9528,7.45837 42.6195,8.2917 43.5,9C 43.2716,9.39877 42.9382,9.56544 42.5,9.5C 41.5,8.83333 40.5,8.16667 39.5,7.5C 37.0504,7.29803 34.717,7.63137 32.5,8.5C 31.4324,7.56552 30.099,7.23219 28.5,7.5C 27.8333,7.5 27.1667,7.5 26.5,7.5C 26.5,6.83333 26.5,6.16667 26.5,5.5 Z"/></g>
<g><path style="opacity:1" fill="#52c4f2" d="M 23.5,5.5 C 24.5,5.5 25.5,5.5 26.5,5.5C 26.5,6.16667 26.5,6.83333 26.5,7.5C 25.5084,7.32842 24.8417,7.66175 24.5,8.5C 23.8333,8.5 23.1667,8.5 22.5,8.5C 21.5,8.5 20.5,8.5 19.5,8.5C 16.8333,8.5 14.1667,8.5 11.5,8.5C 15.7675,8.13069 19.7675,7.13069 23.5,5.5 Z"/></g>
<g><path style="opacity:1" fill="#2d3a98" d="M 39.5,7.5 C 40.5,8.16667 41.5,8.83333 42.5,9.5C 43.1667,10.8333 44.1667,11.8333 45.5,12.5C 45.5,13.5 45.5,14.5 45.5,15.5C 43.5484,14.2153 41.8818,12.5486 40.5,10.5C 39.8902,9.60895 39.5569,8.60895 39.5,7.5 Z"/></g>
<g><path style="opacity:1" fill="#273697" d="M 39.5,7.5 C 39.5569,8.60895 39.8902,9.60895 40.5,10.5C 38.8333,9.83333 37.1667,9.16667 35.5,8.5C 34.8826,8.61071 34.3826,8.94404 34,9.5C 33.5026,12.146 33.3359,14.8127 33.5,17.5C 31.9261,15.8984 31.2594,13.8984 31.5,11.5C 31.5858,10.5041 31.2524,9.67076 30.5,9C 31.0944,8.53566 31.7611,8.36899 32.5,8.5C 34.717,7.63137 37.0504,7.29803 39.5,7.5 Z"/></g>
<g><path style="opacity:1" fill="#324aa4" d="M 41.5,6.5 C 42.8333,6.5 44.1667,6.5 45.5,6.5C 46.2907,8.69074 46.2907,10.6907 45.5,12.5C 44.1667,11.8333 43.1667,10.8333 42.5,9.5C 42.9382,9.56544 43.2716,9.39877 43.5,9C 42.6195,8.2917 41.9528,7.45837 41.5,6.5 Z"/></g>
<g><path style="opacity:1" fill="#55c1f1" d="M 11.5,8.5 C 14.1667,8.5 16.8333,8.5 19.5,8.5C 19.5,9.16667 19.1667,9.5 18.5,9.5C 15.1006,10.2474 11.7672,11.2474 8.5,12.5C 6.6208,13.3414 4.6208,13.6747 2.5,13.5C 3.60048,12.3951 4.26714,11.0618 4.5,9.5C 6.8655,10.2892 9.19883,9.95592 11.5,8.5 Z"/></g>
<g><path style="opacity:1" fill="#283daf" d="M 28.5,7.5 C 30.099,7.23219 31.4324,7.56552 32.5,8.5C 31.7611,8.36899 31.0944,8.53566 30.5,9C 31.2524,9.67076 31.5858,10.5041 31.5,11.5C 30.5,11.8333 29.8333,12.5 29.5,13.5C 28.8333,13.5 28.5,13.1667 28.5,12.5C 28.5,10.8333 28.5,9.16667 28.5,7.5 Z"/></g>
<g><path style="opacity:1" fill="#2a3488" d="M 35.5,8.5 C 37.1667,9.16667 38.8333,9.83333 40.5,10.5C 41.8818,12.5486 43.5484,14.2153 45.5,15.5C 45.5,15.8333 45.5,16.1667 45.5,16.5C 42.911,16.539 40.911,15.539 39.5,13.5C 38.7839,13.2169 37.9506,12.8836 37,12.5C 36.2828,13.0442 35.7828,13.7109 35.5,14.5C 34.1419,14.5806 34.1419,12.5806 35.5,8.5 Z"/></g>
<g><path style="opacity:1" fill="#57bbf1" d="M 18.5,9.5 C 18.6107,10.1174 18.944,10.6174 19.5,11C 15.5783,11.4744 11.9116,12.641 8.5,14.5C 8.5,13.8333 8.5,13.1667 8.5,12.5C 11.7672,11.2474 15.1006,10.2474 18.5,9.5 Z"/></g>
<g><path style="opacity:1" fill="#56b2f1" d="M 19.5,8.5 C 20.5,8.5 21.5,8.5 22.5,8.5C 21.3995,9.60486 20.7329,10.9382 20.5,12.5C 19.8333,12.5 19.5,12.8333 19.5,13.5C 18.6618,13.8417 18.3284,14.5084 18.5,15.5C 16.8333,16.8333 15.1667,16.8333 13.5,15.5C 12.0267,14.9285 10.36,14.9285 8.5,15.5C 8.5,15.1667 8.5,14.8333 8.5,14.5C 11.9116,12.641 15.5783,11.4744 19.5,11C 18.944,10.6174 18.6107,10.1174 18.5,9.5C 19.1667,9.5 19.5,9.16667 19.5,8.5 Z"/></g>
<g><path style="opacity:1" fill="#2e2f87" d="M 35.5,8.5 C 34.1419,12.5806 34.1419,14.5806 35.5,14.5C 36.4878,17.0761 37.4878,19.7428 38.5,22.5C 36.8008,22.6602 35.1341,22.4935 33.5,22C 33.9662,20.7012 33.9662,19.2012 33.5,17.5C 33.3359,14.8127 33.5026,12.146 34,9.5C 34.3826,8.94404 34.8826,8.61071 35.5,8.5 Z"/></g>
<g><path style="opacity:1" fill="#68ccf2" d="M 4.5,9.5 C 4.26714,11.0618 3.60048,12.3951 2.5,13.5C 1.85048,15.4352 1.51715,17.4352 1.5,19.5C 0.31868,16.6377 0.31868,13.6377 1.5,10.5C 2.60895,10.4431 3.60895,10.1098 4.5,9.5 Z"/></g>
<g><path style="opacity:1" fill="#314ad2" d="M 22.5,8.5 C 23.1667,8.5 23.8333,8.5 24.5,8.5C 25.3909,9.26133 26.0576,10.2613 26.5,11.5C 25.6906,13.0709 25.3573,14.7376 25.5,16.5C 25.1667,17.1667 24.8333,17.8333 24.5,18.5C 23.8826,18.3893 23.3826,18.056 23,17.5C 22.6667,15.5 22.3333,13.5 22,11.5C 21.6174,12.056 21.1174,12.3893 20.5,12.5C 20.7329,10.9382 21.3995,9.60486 22.5,8.5 Z"/></g>
<g><path style="opacity:1" fill="#2b2c75" d="M 39.5,13.5 C 38.735,15.6068 38.735,17.4402 39.5,19C 40.9423,19.3768 41.9423,20.2101 42.5,21.5C 42.5,22.1667 42.1667,22.5 41.5,22.5C 41.1667,22.5 40.8333,22.5 40.5,22.5C 39.8333,22.5 39.1667,22.5 38.5,22.5C 37.4878,19.7428 36.4878,17.0761 35.5,14.5C 35.7828,13.7109 36.2828,13.0442 37,12.5C 37.9506,12.8836 38.7839,13.2169 39.5,13.5 Z"/></g>
<g><path style="opacity:1" fill="#5bbaf1" d="M 8.5,12.5 C 8.5,13.1667 8.5,13.8333 8.5,14.5C 8.5,14.8333 8.5,15.1667 8.5,15.5C 5.4121,15.7311 3.07877,17.0645 1.5,19.5C 1.51715,17.4352 1.85048,15.4352 2.5,13.5C 4.6208,13.6747 6.6208,13.3414 8.5,12.5 Z"/></g>
<g><path style="opacity:1" fill="#3d4ddc" d="M 24.5,18.5 C 24.5,19.5 24.5,20.5 24.5,21.5C 23.1667,21.5 21.8333,21.5 20.5,21.5C 20.1667,21.5 19.8333,21.5 19.5,21.5C 19.5,20.8333 19.5,20.1667 19.5,19.5C 19.5,17.5 19.5,15.5 19.5,13.5C 19.5,12.8333 19.8333,12.5 20.5,12.5C 21.1174,12.3893 21.6174,12.056 22,11.5C 22.3333,13.5 22.6667,15.5 23,17.5C 23.3826,18.056 23.8826,18.3893 24.5,18.5 Z"/></g>
<g><path style="opacity:1" fill="#2d42bf" d="M 24.5,8.5 C 24.8417,7.66175 25.5084,7.32842 26.5,7.5C 27.1667,7.5 27.8333,7.5 28.5,7.5C 28.5,9.16667 28.5,10.8333 28.5,12.5C 27.5386,14.2646 27.2053,16.2646 27.5,18.5C 26.8333,17.8333 26.1667,17.1667 25.5,16.5C 25.3573,14.7376 25.6906,13.0709 26.5,11.5C 26.0576,10.2613 25.3909,9.26133 24.5,8.5 Z"/></g>
<g><path style="opacity:1" fill="#58a6f2" d="M 13.5,15.5 C 15.1667,16.8333 16.8333,16.8333 18.5,15.5C 17.0821,17.3079 15.0821,17.9746 12.5,17.5C 11.2921,18.2341 9.95875,18.5674 8.5,18.5C 10.0725,17.3127 11.7392,16.3127 13.5,15.5 Z"/></g>
<g><path style="opacity:1" fill="#343499" d="M 31.5,11.5 C 31.2594,13.8984 31.9261,15.8984 33.5,17.5C 33.9662,19.2012 33.9662,20.7012 33.5,22C 35.1341,22.4935 36.8008,22.6602 38.5,22.5C 39.1667,22.5 39.8333,22.5 40.5,22.5C 40.5,22.8333 40.5,23.1667 40.5,23.5C 37.5,23.5 34.5,23.5 31.5,23.5C 31.678,19.8776 31.0114,16.5443 29.5,13.5C 29.8333,12.5 30.5,11.8333 31.5,11.5 Z"/></g>
<g><path style="opacity:1" fill="#242763" d="M 39.5,13.5 C 40.911,15.539 42.911,16.539 45.5,16.5C 45.047,18.5652 44.047,20.2318 42.5,21.5C 41.9423,20.2101 40.9423,19.3768 39.5,19C 38.735,17.4402 38.735,15.6068 39.5,13.5 Z"/></g>
<g><path style="opacity:1" fill="#5cb1f3" d="M 13.5,15.5 C 11.7392,16.3127 10.0725,17.3127 8.5,18.5C 6.36805,18.5544 5.03472,19.5544 4.5,21.5C 4.5,22.1667 4.5,22.8333 4.5,23.5C 2.08824,23.3059 1.08824,21.9726 1.5,19.5C 3.07877,17.0645 5.4121,15.7311 8.5,15.5C 10.36,14.9285 12.0267,14.9285 13.5,15.5 Z"/></g>
<g><path style="opacity:1" fill="#579bf2" d="M 19.5,13.5 C 19.5,15.5 19.5,17.5 19.5,19.5C 19.1667,19.5 18.8333,19.5 18.5,19.5C 17.8826,19.3893 17.3826,19.056 17,18.5C 15.103,20.0163 12.9363,20.683 10.5,20.5C 11.5511,19.7777 12.2178,18.7777 12.5,17.5C 15.0821,17.9746 17.0821,17.3079 18.5,15.5C 18.3284,14.5084 18.6618,13.8417 19.5,13.5 Z"/></g>
<g><path style="opacity:1" fill="#5aa2f3" d="M 12.5,17.5 C 12.2178,18.7777 11.5511,19.7777 10.5,20.5C 8.73535,21.4614 6.73535,21.7947 4.5,21.5C 5.03472,19.5544 6.36805,18.5544 8.5,18.5C 9.95875,18.5674 11.2921,18.2341 12.5,17.5 Z"/></g>
<g><path style="opacity:1" fill="#3538b1" d="M 28.5,12.5 C 28.5,13.1667 28.8333,13.5 29.5,13.5C 29.2492,16.2896 29.2492,19.2896 29.5,22.5C 28.5,22.5 27.5,22.5 26.5,22.5C 27.2341,21.2921 27.5674,19.9587 27.5,18.5C 27.2053,16.2646 27.5386,14.2646 28.5,12.5 Z"/></g>
<g><path style="opacity:1" fill="#3638a9" d="M 29.5,13.5 C 31.0114,16.5443 31.678,19.8776 31.5,23.5C 29.8333,23.5 28.1667,23.5 26.5,23.5C 26.5,23.1667 26.5,22.8333 26.5,22.5C 27.5,22.5 28.5,22.5 29.5,22.5C 29.2492,19.2896 29.2492,16.2896 29.5,13.5 Z"/></g>
<g><path style="opacity:1" fill="#5e96f1" d="M 18.5,19.5 C 14.6354,20.9982 10.9688,22.6649 7.5,24.5C 7.5,24.8333 7.5,25.1667 7.5,25.5C 6.83333,25.1667 6.16667,24.8333 5.5,24.5C 4.83333,24.5 4.5,24.1667 4.5,23.5C 4.5,22.8333 4.5,22.1667 4.5,21.5C 6.73535,21.7947 8.73535,21.4614 10.5,20.5C 12.9363,20.683 15.103,20.0163 17,18.5C 17.3826,19.056 17.8826,19.3893 18.5,19.5 Z"/></g>
<g><path style="opacity:1" fill="#3e41c8" d="M 25.5,16.5 C 26.1667,17.1667 26.8333,17.8333 27.5,18.5C 27.5674,19.9587 27.2341,21.2921 26.5,22.5C 26.5,22.8333 26.5,23.1667 26.5,23.5C 23.9899,23.9465 21.9899,23.2798 20.5,21.5C 21.8333,21.5 23.1667,21.5 24.5,21.5C 24.5,20.5 24.5,19.5 24.5,18.5C 24.8333,17.8333 25.1667,17.1667 25.5,16.5 Z"/></g>
<g><path style="opacity:1" fill="#5f88f1" d="M 18.5,19.5 C 18.8333,19.5 19.1667,19.5 19.5,19.5C 19.5,20.1667 19.5,20.8333 19.5,21.5C 19.4226,22.7498 18.756,23.5831 17.5,24C 14.1832,24.4983 10.8499,24.665 7.5,24.5C 10.9688,22.6649 14.6354,20.9982 18.5,19.5 Z"/></g>
<g><path style="opacity:1" fill="#5c6ee5" d="M 19.5,21.5 C 19.8333,21.5 20.1667,21.5 20.5,21.5C 21.9899,23.2798 23.9899,23.9465 26.5,23.5C 28.1667,23.5 29.8333,23.5 31.5,23.5C 34.5,23.5 37.5,23.5 40.5,23.5C 36.8457,24.6707 33.179,26.0041 29.5,27.5C 28.4163,27.315 27.4163,26.9817 26.5,26.5C 25.4324,25.5655 24.099,25.2322 22.5,25.5C 22.1667,25.5 21.8333,25.5 21.5,25.5C 20.1667,25.5 18.8333,25.5 17.5,25.5C 16.8333,25.5 16.1667,25.5 15.5,25.5C 13.8333,25.5 12.1667,25.5 10.5,25.5C 9.5,25.5 8.5,25.5 7.5,25.5C 7.5,25.1667 7.5,24.8333 7.5,24.5C 10.8499,24.665 14.1832,24.4983 17.5,24C 18.756,23.5831 19.4226,22.7498 19.5,21.5 Z"/></g>
<g><path style="opacity:1" fill="#312b8e" d="M 10.5,25.5 C 12.1667,25.5 13.8333,25.5 15.5,25.5C 12.9031,29.0338 10.5698,32.7004 8.5,36.5C 8.16667,35.5 7.5,34.8333 6.5,34.5C 6.5,33.8333 6.5,33.1667 6.5,32.5C 6.81001,31.2617 7.31001,31.2617 8,32.5C 8.46434,31.9056 8.63101,31.2389 8.5,30.5C 9.96799,29.2209 10.6347,27.5542 10.5,25.5 Z"/></g>
<g><path style="opacity:1" fill="#6469eb" d="M 40.5,22.5 C 40.8333,22.5 41.1667,22.5 41.5,22.5C 42.5,23.8333 43.5,25.1667 44.5,26.5C 44.44,27.0431 44.1067,27.3764 43.5,27.5C 40.1341,24.8826 37.1341,25.3826 34.5,29C 32.0709,29.7033 29.7375,29.5366 27.5,28.5C 27.1667,28.5 26.8333,28.5 26.5,28.5C 26.5,27.8333 26.5,27.1667 26.5,26.5C 27.4163,26.9817 28.4163,27.315 29.5,27.5C 33.179,26.0041 36.8457,24.6707 40.5,23.5C 40.5,23.1667 40.5,22.8333 40.5,22.5 Z"/></g>
<g><path style="opacity:1" fill="#3e2da3" d="M 17.5,25.5 C 18.8333,25.5 20.1667,25.5 21.5,25.5C 20.8553,27.8263 19.522,29.493 17.5,30.5C 17.1778,29.1418 17.1778,27.4752 17.5,25.5 Z"/></g>
<g><path style="opacity:1" fill="#4533b0" d="M 21.5,25.5 C 21.8333,25.5 22.1667,25.5 22.5,25.5C 22.7845,27.4147 22.4511,29.0813 21.5,30.5C 19.567,32.9374 17.4003,35.2707 15,37.5C 14.3083,38.4368 14.475,39.1034 15.5,39.5C 17.6977,39.4088 18.0311,40.0755 16.5,41.5C 15.1667,41.5 13.8333,41.5 12.5,41.5C 12.6716,40.5084 12.3382,39.8417 11.5,39.5C 13.5851,36.8212 15.5851,34.1545 17.5,31.5C 17.5,31.1667 17.5,30.8333 17.5,30.5C 19.522,29.493 20.8553,27.8263 21.5,25.5 Z"/></g>
<g><path style="opacity:1" fill="#4d35bd" d="M 22.5,25.5 C 24.099,25.2322 25.4324,25.5655 26.5,26.5C 26.5,27.1667 26.5,27.8333 26.5,28.5C 26.5,28.8333 26.5,29.1667 26.5,29.5C 24.9147,30.4737 23.9147,31.9737 23.5,34C 22.552,34.4828 21.552,34.6495 20.5,34.5C 21.2341,33.2921 21.5674,31.9587 21.5,30.5C 22.4511,29.0813 22.7845,27.4147 22.5,25.5 Z"/></g>
<g><path style="opacity:1" fill="#6964ed" d="M 44.5,26.5 C 45.3382,26.8417 45.6716,27.5084 45.5,28.5C 43.8828,29.038 42.2161,29.3713 40.5,29.5C 36.5002,30.0036 32.8335,31.3369 29.5,33.5C 27.7868,32.3646 27.1201,30.698 27.5,28.5C 29.7375,29.5366 32.0709,29.7033 34.5,29C 37.1341,25.3826 40.1341,24.8826 43.5,27.5C 44.1067,27.3764 44.44,27.0431 44.5,26.5 Z"/></g>
<g><path style="opacity:1" fill="#393eb2" d="M 5.5,24.5 C 6.16667,24.8333 6.83333,25.1667 7.5,25.5C 8.5,25.5 9.5,25.5 10.5,25.5C 10.6347,27.5542 9.96799,29.2209 8.5,30.5C 6.56594,29.8897 4.89928,28.8897 3.5,27.5C 4.16667,26.5 4.83333,25.5 5.5,24.5 Z"/></g>
<g><path style="opacity:1" fill="#382b99" d="M 15.5,25.5 C 16.1667,25.5 16.8333,25.5 17.5,25.5C 17.1778,27.4752 17.1778,29.1418 17.5,30.5C 17.5,30.8333 17.5,31.1667 17.5,31.5C 13.5057,32.1358 11.1724,34.8024 10.5,39.5C 9.83333,39.5 9.16667,39.5 8.5,39.5C 8.5,38.5 8.5,37.5 8.5,36.5C 10.5698,32.7004 12.9031,29.0338 15.5,25.5 Z"/></g>
<g><path style="opacity:1" fill="#7064ec" d="M 40.5,29.5 C 38.604,30.4805 36.604,31.4805 34.5,32.5C 33.7025,32.9569 33.3691,33.6236 33.5,34.5C 32.8333,34.5 32.1667,34.5 31.5,34.5C 30.5084,34.6716 29.8417,34.3382 29.5,33.5C 32.8335,31.3369 36.5002,30.0036 40.5,29.5 Z"/></g>
<g><path style="opacity:1" fill="#7b66ee" d="M 45.5,28.5 C 46.4345,29.5676 46.7678,30.901 46.5,32.5C 45.7784,32.9175 45.2784,33.5842 45,34.5C 44.4494,31.4435 42.7828,31.1101 40,33.5C 37.8215,32.1602 37.3215,32.4935 38.5,34.5C 37.0357,33.5946 35.7024,33.5946 34.5,34.5C 34.1667,34.5 33.8333,34.5 33.5,34.5C 33.3691,33.6236 33.7025,32.9569 34.5,32.5C 36.604,31.4805 38.604,30.4805 40.5,29.5C 42.2161,29.3713 43.8828,29.038 45.5,28.5 Z"/></g>
<g><path style="opacity:1" fill="#33369f" d="M 3.5,27.5 C 4.89928,28.8897 6.56594,29.8897 8.5,30.5C 8.63101,31.2389 8.46434,31.9056 8,32.5C 7.31001,31.2617 6.81001,31.2617 6.5,32.5C 4.60171,33.7345 2.93504,33.4011 1.5,31.5C 1.22911,29.6203 1.89578,28.287 3.5,27.5 Z"/></g>
<g><path style="opacity:1" fill="#2d289e" d="M 1.5,31.5 C 2.93504,33.4011 4.60171,33.7345 6.5,32.5C 6.5,33.1667 6.5,33.8333 6.5,34.5C 3.51886,34.7944 2.85219,36.1278 4.5,38.5C 1.97908,36.9696 0.979077,34.6363 1.5,31.5 Z"/></g>
<g><path style="opacity:1" fill="#8868f0" d="M 46.5,32.5 C 46.4452,35.6145 45.1119,37.9478 42.5,39.5C 41.2086,38.5272 41.2086,37.5272 42.5,36.5C 41.2342,35.6376 39.9008,34.9709 38.5,34.5C 37.3215,32.4935 37.8215,32.1602 40,33.5C 42.7828,31.1101 44.4494,31.4435 45,34.5C 45.2784,33.5842 45.7784,32.9175 46.5,32.5 Z"/></g>
<g><path style="opacity:1" fill="#4632b5" d="M 21.5,30.5 C 21.5674,31.9587 21.2341,33.2921 20.5,34.5C 18.5,35.8333 16.8333,37.5 15.5,39.5C 14.475,39.1034 14.3083,38.4368 15,37.5C 17.4003,35.2707 19.567,32.9374 21.5,30.5 Z"/></g>
<g><path style="opacity:1" fill="#4d35bd" d="M 20.5,34.5 C 19.438,36.2341 19.438,37.9008 20.5,39.5C 20.5,40.1667 20.5,40.8333 20.5,41.5C 19.1667,41.5 17.8333,41.5 16.5,41.5C 18.0311,40.0755 17.6977,39.4088 15.5,39.5C 16.8333,37.5 18.5,35.8333 20.5,34.5 Z"/></g>
<g><path style="opacity:1" fill="#7159e9" d="M 26.5,28.5 C 26.8333,28.5 27.1667,28.5 27.5,28.5C 27.1201,30.698 27.7868,32.3646 29.5,33.5C 29.8417,34.3382 30.5084,34.6716 31.5,34.5C 29.4788,35.8545 27.8121,37.5212 26.5,39.5C 25.1667,39.5 23.8333,39.5 22.5,39.5C 26.0929,37.2629 27.4263,33.9296 26.5,29.5C 26.5,29.1667 26.5,28.8333 26.5,28.5 Z"/></g>
<g><path style="opacity:1" fill="#7e5ded" d="M 31.5,34.5 C 32.1667,34.5 32.8333,34.5 33.5,34.5C 33.8333,34.5 34.1667,34.5 34.5,34.5C 34.2503,36.674 33.2503,38.3406 31.5,39.5C 29.8333,39.5 28.1667,39.5 26.5,39.5C 27.8121,37.5212 29.4788,35.8545 31.5,34.5 Z"/></g>
<g><path style="opacity:1" fill="#2f268b" d="M 6.5,34.5 C 7.5,34.8333 8.16667,35.5 8.5,36.5C 8.5,37.5 8.5,38.5 8.5,39.5C 7.16667,39.1667 5.83333,38.8333 4.5,38.5C 2.85219,36.1278 3.51886,34.7944 6.5,34.5 Z"/></g>
<g><path style="opacity:1" fill="#8a63f0" d="M 38.5,34.5 C 39.9008,34.9709 41.2342,35.6376 42.5,36.5C 41.2086,37.5272 41.2086,38.5272 42.5,39.5C 40.5786,40.3627 38.5786,41.0293 36.5,41.5C 35.4479,39.744 33.7812,39.0773 31.5,39.5C 33.2503,38.3406 34.2503,36.674 34.5,34.5C 35.7024,33.5946 37.0357,33.5946 38.5,34.5 Z"/></g>
<g><path style="opacity:1" fill="#3e2ca5" d="M 17.5,31.5 C 15.5851,34.1545 13.5851,36.8212 11.5,39.5C 11.1667,39.5 10.8333,39.5 10.5,39.5C 11.1724,34.8024 13.5057,32.1358 17.5,31.5 Z"/></g>
<g><path style="opacity:1" fill="#5438c8" d="M 26.5,29.5 C 27.4263,33.9296 26.0929,37.2629 22.5,39.5C 21.8333,39.5 21.1667,39.5 20.5,39.5C 19.438,37.9008 19.438,36.2341 20.5,34.5C 21.552,34.6495 22.552,34.4828 23.5,34C 23.9147,31.9737 24.9147,30.4737 26.5,29.5 Z"/></g>
<g><path style="opacity:1" fill="#3c319e" d="M 4.5,38.5 C 5.83333,38.8333 7.16667,39.1667 8.5,39.5C 9.16667,39.5 9.83333,39.5 10.5,39.5C 10.8333,39.5 11.1667,39.5 11.5,39.5C 12.3382,39.8417 12.6716,40.5084 12.5,41.5C 10.4727,41.6621 8.4727,41.4955 6.5,41C 5.24402,40.5831 4.57735,39.7498 4.5,38.5 Z"/></g>
<g><path style="opacity:1" fill="#8367e3" d="M 20.5,39.5 C 21.1667,39.5 21.8333,39.5 22.5,39.5C 23.8333,39.5 25.1667,39.5 26.5,39.5C 28.1667,39.5 29.8333,39.5 31.5,39.5C 33.7812,39.0773 35.4479,39.744 36.5,41.5C 31.1667,41.5 25.8333,41.5 20.5,41.5C 20.5,40.8333 20.5,40.1667 20.5,39.5 Z"/></g>
</svg>
