<?xml version="1.0" encoding="UTF-8"?>
<!DOCTYPE svg PUBLIC "-//W3C//DTD SVG 1.1//EN" "http://www.w3.org/Graphics/SVG/1.1/DTD/svg11.dtd">
<!-- Creator: CorelDRAW X7 -->
<svg xmlns="http://www.w3.org/2000/svg" xml:space="preserve" width="8.5in" height="11in" version="1.1" style="shape-rendering:geometricPrecision; text-rendering:geometricPrecision; image-rendering:optimizeQuality; fill-rule:evenodd; clip-rule:evenodd"
viewBox="0 0 8500 11000"
 xmlns:xlink="http://www.w3.org/1999/xlink">
 <defs>
  <style type="text/css">
   <![CDATA[
    .fil0 {fill:#FEFEFE}
   ]]>
  </style>
 </defs>
 <g id="Layer_x0020_1">
  <metadata id="CorelCorpID_0Corel-Layer"/>
  <g id="_1941104802480">
   <path class="fil0" d="M2765 4977c13,0 26,0 39,0 41,0 82,1 122,1 28,0 56,0 84,0 68,0 136,1 204,1 0,55 0,110 0,167 -19,-1 -37,-1 -56,-1 -85,7 -125,54 -180,115 -17,20 -35,39 -54,58 -7,9 -15,18 -23,26 -21,21 -21,21 -52,31 -9,-5 -18,-10 -27,-15 -48,-22 -88,-24 -140,-16 -45,21 -73,48 -97,93 -13,41 -10,83 -7,126 12,-2 12,-2 25,-3 27,3 27,3 41,18 4,7 8,14 12,21 22,28 33,36 69,43 65,4 65,4 123,-20 37,-44 43,-74 40,-130 -1,-70 -1,-70 26,-103 38,-32 38,-32 70,-35 50,81 49,154 37,246 -25,55 -65,98 -110,140 -15,5 -15,5 -31,10 5,57 5,57 11,115 114,-64 182,-133 225,-259 18,-104 10,-209 -38,-304 -3,-3 -7,-7 -10,-10 -4,-24 -4,-24 0,-52 22,-30 22,-30 52,-52 26,0 26,0 52,10 18,26 18,26 33,59 5,10 10,21 15,32 34,81 38,150 36,236 0,12 0,24 0,36 0,28 0,56 -1,85 -7,0 -14,0 -21,0 0,8 -1,16 -1,25 -29,119 -122,219 -224,282 -43,27 -78,42 -129,47 0,7 0,14 0,21 -272,6 -272,6 -375,-31 0,-7 0,-14 0,-21 -7,-2 -14,-5 -21,-7 -43,-19 -77,-47 -114,-77 6,-36 18,-53 45,-78 7,-7 14,-14 21,-20 15,-14 30,-28 45,-42 6,-7 13,-14 21,-21 6,-6 13,-12 19,-18 19,-20 19,-20 26,-60 -55,0 -110,0 -167,0 6,14 12,28 18,42 12,37 16,58 0,94 -6,10 -12,20 -18,31 -27,0 -55,0 -83,0 -11,-22 -21,-44 -31,-66 -6,-12 -12,-25 -18,-37 -14,-33 -14,-33 -14,-64 -6,0 -13,0 -20,0 -9,-278 -9,-278 41,-375 8,-15 8,-15 16,-30 74,-129 192,-217 336,-258 52,-9 105,-6 158,-6zm-322 242c-94,109 -110,202 -104,344 34,0 68,0 104,0 1,-12 2,-23 2,-34 11,-116 32,-187 122,-265 66,-43 113,-48 189,-43 62,4 62,4 119,-18 19,-22 19,-22 36,-57 -37,0 -75,0 -114,0 0,-10 0,-21 0,-31 -143,-20 -249,0 -354,104z"/>
   <path class="fil0" d="M3146 5188c37,14 43,33 59,69 8,15 8,15 15,32 34,81 38,150 37,236 -1,12 -1,24 -1,35 0,29 0,57 -1,86 -7,0 -14,0 -21,0 0,8 0,16 -1,25 -29,119 -122,219 -224,282 -43,27 -78,42 -129,47 0,7 0,14 0,21 -272,6 -272,6 -375,-31 0,-7 0,-14 0,-21 -7,-2 -14,-5 -21,-7 -42,-19 -77,-47 -114,-77 5,-42 26,-61 56,-91 9,-9 18,-18 28,-27 14,-15 14,-15 29,-29 10,-10 19,-20 29,-30 72,-71 72,-71 108,-83 13,7 13,7 26,14 35,17 55,20 93,22 51,4 86,12 131,37 11,34 14,65 16,101 1,12 2,24 3,37 0,9 1,19 2,29 114,-62 183,-134 225,-259 18,-104 10,-209 -38,-304 -5,-5 -5,-5 -10,-10 -4,-24 -4,-24 0,-52 39,-53 39,-53 78,-52z"/>
   <path class="fil0" d="M4370 5219c110,0 220,0 333,0 7,14 14,27 21,41 7,7 14,13 21,20 31,33 41,62 42,107 -4,55 -16,91 -53,134 -28,25 -28,25 -52,42 4,5 8,11 11,17 7,11 7,11 15,22 7,11 7,11 14,23 12,21 12,21 23,52 7,7 14,14 21,21 10,30 10,51 10,83 -34,0 -69,0 -104,0 -7,-14 -13,-28 -20,-43 -8,-18 -17,-37 -26,-55 -5,-9 -9,-19 -13,-28 -24,-52 -24,-52 -70,-80 -23,-3 -45,-4 -69,-2 0,6 0,12 0,18 0,27 0,53 1,80 0,10 0,19 0,29 0,8 0,17 0,27 0,8 0,16 0,24 -1,20 -1,20 -11,30 -31,0 -62,0 -94,0 0,-185 0,-371 0,-562zm104 94c0,55 0,110 0,166 25,1 50,2 75,3 12,0 12,0 24,1 35,1 54,-1 82,-23 22,-29 27,-48 27,-85 -18,-29 -32,-47 -62,-62 -25,-1 -50,-1 -74,-1 -36,0 -36,0 -72,1z"/>
   <path class="fil0" d="M2736 4977c10,0 19,0 28,0 41,1 77,1 116,13 8,38 11,66 0,104 -6,0 -13,1 -19,1 -229,13 -229,13 -418,134 -75,97 -96,187 -106,307 -1,10 -2,21 -2,32 -3,26 -5,52 -7,78 -7,0 -14,0 -21,0 1,7 1,14 1,22 0,14 0,14 1,28 0,9 0,19 0,28 -2,26 -2,26 -23,57 -8,-16 -17,-33 -26,-50 -4,-9 -9,-18 -14,-28 -12,-26 -12,-26 -12,-57 -7,0 -13,0 -20,0 -9,-278 -9,-278 41,-375 8,-15 8,-15 16,-30 74,-128 182,-204 320,-253 49,-11 95,-12 145,-11z"/>
   <path class="fil0" d="M5966 5218c15,0 30,0 45,0 12,0 12,0 24,0 25,0 50,0 75,0 17,0 34,0 51,0 42,0 84,1 126,1 0,64 0,64 0,83 -11,10 -11,10 -35,12 -10,0 -21,0 -32,0 -11,0 -22,-1 -34,-1 -12,0 -23,0 -36,0 -12,0 -23,0 -36,0 -29,0 -59,0 -88,-1 0,45 0,90 0,136 15,0 30,0 45,0 20,-1 39,-1 59,-1 9,0 19,0 29,0 14,0 14,0 29,0 13,0 13,0 26,0 20,1 20,1 31,11 0,28 0,55 0,84 -72,0 -145,0 -219,0 0,48 0,96 0,145 27,0 27,0 54,0 24,0 47,0 70,0 12,0 24,0 36,0 12,0 23,0 34,0 16,-1 16,-1 32,-1 24,1 24,1 35,12 1,36 1,36 0,73 -18,18 -41,12 -64,12 -8,0 -15,0 -23,0 -7,0 -15,0 -23,0 -16,0 -32,0 -48,0 -25,0 -49,0 -74,0 -16,0 -31,0 -47,0 -11,0 -11,0 -22,0 -53,-1 -53,-1 -64,-12 -1,-17 -1,-34 -1,-51 -1,-11 -1,-21 -1,-33 0,-11 0,-23 0,-35 0,-18 0,-18 0,-37 0,-25 0,-50 1,-76 0,-39 0,-78 -1,-117 0,-25 0,-49 0,-74 0,-11 0,-23 0,-35 0,-11 0,-22 1,-33 0,-10 0,-19 0,-29 2,-36 8,-32 45,-33z"/>
   <path class="fil0" d="M5318 5240c22,16 42,33 62,52 -13,29 -25,53 -52,73 -27,-2 -41,-10 -63,-27 -48,-24 -93,-23 -145,-15 -45,17 -75,41 -104,79 -16,53 -18,106 -11,161 15,28 15,28 31,52 0,6 0,13 0,20 7,3 12,6 19,10 14,7 29,14 43,22 38,17 75,16 116,10 22,-10 43,-21 64,-33 19,-9 19,-9 48,-8 26,11 39,18 54,41 -1,25 -1,25 -10,52 -66,51 -139,72 -221,67 -93,-13 -154,-48 -217,-119 -45,-69 -59,-137 -52,-219 21,-93 68,-164 146,-218 87,-50 205,-50 292,0z"/>
   <path class="fil0" d="M3932 5250c14,10 28,20 42,31 -4,29 -8,48 -24,72 -18,12 -18,12 -37,10 -22,-9 -22,-9 -49,-25 -51,-21 -96,-22 -150,-15 -52,24 -77,55 -105,104 -18,57 -17,105 8,159 23,43 53,69 97,91 77,8 122,-1 187,-42 28,1 38,8 61,24 12,18 12,18 12,38 -21,43 -58,63 -100,82 -83,28 -162,19 -241,-16 -54,-29 -87,-63 -117,-117 -7,-4 -14,-7 -21,-11 -27,-87 -31,-180 8,-263 44,-78 97,-119 177,-156 92,-20 170,-10 252,34z"/>
   <path class="fil0" d="M2609 5625c10,5 21,9 31,14 34,16 63,20 100,22 50,4 86,10 130,37 10,33 10,33 10,62 -59,31 -101,34 -167,29 -63,-3 -63,-3 -119,19 -20,22 -20,22 -37,57 31,6 62,13 94,20 0,4 0,7 0,11 -24,0 -48,0 -73,0 0,7 0,14 0,21 7,0 14,0 21,0 0,7 0,13 0,21 10,0 21,0 31,0 0,13 0,27 0,41 16,5 16,5 31,11 0,10 0,20 0,31 -20,-3 -40,-7 -60,-10 -11,-2 -23,-4 -34,-5 -31,-6 -31,-6 -62,-16 0,-7 0,-14 0,-21 -7,-2 -14,-5 -21,-7 -43,-19 -77,-48 -114,-77 5,-42 26,-61 56,-91 9,-9 19,-18 28,-27 10,-10 20,-19 30,-29 14,-15 14,-15 29,-30 72,-71 72,-71 96,-83z"/>
   <path class="fil0" d="M2839 4979c123,0 247,0 375,0 0,55 0,110 0,167 -19,0 -37,-1 -56,-1 -84,7 -122,51 -176,111 -17,18 -34,37 -51,55 -8,8 -15,17 -23,25 -9,9 -9,9 -17,18 -4,0 -7,0 -11,0 0,-41 0,-82 0,-125 -10,-3 -20,-7 -31,-10 17,-21 34,-41 52,-63 -34,-3 -69,-7 -104,-10 0,-10 0,-21 0,-31 -24,0 -48,0 -73,0 0,-4 0,-7 0,-11 53,-9 103,-11 156,-10 0,-35 0,-69 0,-104 -14,-4 -27,-7 -41,-11z"/>
   <path class="fil0" d="M5505 5219c31,0 62,0 94,0 0,154 0,309 0,469 72,0 144,0 219,0 10,10 10,10 11,46 -1,37 -1,37 -11,47 -23,1 -46,2 -69,2 -7,0 -14,0 -21,0 -15,0 -29,0 -44,0 -22,0 -45,0 -67,0 -14,0 -29,0 -43,0 -13,0 -26,0 -39,0 -30,-2 -30,-2 -40,-12 -1,-17 -2,-33 -2,-50 0,-10 0,-21 0,-32 0,-11 0,-23 0,-35 0,-11 0,-23 0,-35 0,-25 0,-50 0,-75 0,-38 0,-76 0,-114 0,-24 0,-48 0,-72 0,-12 0,-24 0,-35 0,-11 0,-22 0,-32 0,-10 0,-19 0,-29 2,-22 2,-22 12,-43z"/>
   <path class="fil0" d="M2536 5313c11,0 21,0 32,0 34,94 34,94 23,130 -5,9 -9,17 -13,26 -2,31 -1,62 0,94 7,-2 15,-4 22,-5 30,5 30,5 43,21 6,10 6,10 13,20 22,28 33,36 69,44 65,3 65,3 123,-21 37,-44 43,-74 40,-130 -1,-70 -1,-70 26,-103 38,-32 38,-32 70,-35 50,81 49,154 37,246 -25,55 -65,98 -110,140 -10,3 -20,6 -31,10 -2,-8 -4,-16 -6,-25 -12,-29 -12,-29 -40,-40 -41,-9 -82,-12 -124,-14 -27,-4 -44,-10 -67,-23 -11,-4 -22,-8 -34,-13 -35,18 -35,18 -62,42 0,-10 0,-21 0,-31 -14,-4 -28,-7 -42,-11 13,-7 13,-7 27,-14 28,-24 28,-24 26,-53 -2,-27 -6,-52 -11,-78 -10,0 -21,0 -31,0 -12,-70 -14,-115 20,-177z"/>
   <path class="fil0" d="M2880 5760c1,11 1,22 2,33 1,14 2,29 3,43 0,7 1,14 1,22 2,34 5,67 15,100 10,0 21,0 31,0 6,16 6,16 11,32 -31,5 -31,5 -63,10 0,7 0,14 0,21 -72,0 -144,0 -219,0 -3,-10 -6,-21 -10,-31 -7,-4 -14,-7 -21,-11 0,-14 0,-27 0,-41 -10,0 -20,0 -31,0 0,-7 0,-14 0,-21 -7,0 -14,0 -21,0 0,-7 0,-14 0,-21 10,-4 21,-7 31,-11 -25,-10 -25,-10 -52,-20 16,-36 32,-60 63,-84 31,-4 61,-3 93,-1 60,3 112,-20 167,-20z"/>
   <path class="fil0" d="M4099 5219c31,0 62,0 94,0 17,17 11,37 11,61 0,11 1,22 1,33 0,11 -1,23 -1,35 0,12 0,24 1,37 0,25 -1,50 -1,76 0,39 0,78 1,117 0,25 -1,49 -1,74 0,11 1,23 1,35 0,11 -1,22 -1,33 0,14 0,14 0,29 -1,22 -1,22 -11,32 -31,0 -62,0 -94,0 0,-185 0,-371 0,-562z"/>
   <path class="fil0" d="M2839 4979c123,0 247,0 375,0 0,55 0,110 0,167 -38,0 -76,0 -115,0 -7,-14 -14,-28 -21,-42 -71,-58 -152,-90 -239,-114 0,-4 0,-7 0,-11z"/>
   <path class="fil0" d="M2880 5760c0,38 0,76 0,115 -48,19 -92,24 -144,24 -7,0 -14,0 -22,0 -58,-1 -103,-12 -157,-34 16,-36 31,-61 63,-84 31,-4 61,-3 93,-1 60,3 112,-20 167,-20z"/>
   <path class="fil0" d="M2362 5561c15,1 15,1 29,1 10,0 19,0 29,0 8,0 15,0 23,1 13,27 27,55 41,83 -34,0 -68,0 -104,0 6,14 12,28 18,42 12,37 16,58 0,94 -9,15 -9,15 -18,31 -27,0 -55,0 -83,0 3,-55 7,-110 10,-167 7,0 14,0 21,0 0,-12 0,-24 -1,-36 1,-47 1,-47 35,-49z"/>
   <path class="fil0" d="M2536 5313c11,0 21,0 32,0 34,94 34,94 23,130 -5,9 -9,17 -13,26 -2,31 -1,62 0,94 7,-2 15,-4 22,-5 30,5 30,5 44,20 4,7 9,14 14,20 20,28 30,36 64,45 29,2 57,3 85,3 -25,26 -34,24 -69,24 -37,0 -62,-4 -95,-22 -11,-4 -22,-8 -34,-13 -35,18 -35,18 -62,42 0,-10 0,-21 0,-31 -14,-4 -28,-7 -42,-11 13,-7 13,-7 27,-14 28,-24 28,-24 26,-53 -2,-27 -6,-52 -11,-78 -10,0 -21,0 -31,0 -12,-70 -14,-115 20,-177z"/>
   <path class="fil0" d="M3047 5073c30,21 30,21 52,42 -6,33 -15,51 -38,75 -5,6 -10,11 -16,17 -19,12 -19,12 -81,12 0,-45 0,-90 0,-136 29,-15 50,-13 83,-10z"/>
   <path class="fil0" d="M2602 5556c34,8 36,15 56,42 20,28 30,36 64,45 29,2 57,3 85,3 -25,26 -34,24 -69,24 -37,0 -62,-4 -95,-22 -11,-4 -22,-8 -34,-13 -35,18 -35,18 -62,42 0,-10 0,-21 0,-31 -14,-4 -28,-7 -42,-11 8,-6 17,-12 25,-18 27,-23 38,-52 72,-61z"/>
   <path class="fil0" d="M2880 5000c39,5 70,12 104,31 0,7 0,14 0,21 -46,5 -46,5 -93,11 0,24 0,48 0,72 7,4 13,7 20,11 -37,0 -75,0 -114,0 0,-10 0,-21 0,-31 -24,0 -48,0 -73,0 0,-4 0,-7 0,-11 53,-9 103,-11 156,-10 0,-31 0,-62 0,-94z"/>
   <path class="fil0" d="M2339 5563c34,0 68,0 104,0 13,27 27,55 41,83 -34,0 -68,0 -104,0 -3,10 -7,20 -10,31 -5,-15 -11,-30 -16,-46 -3,-8 -6,-16 -9,-25 -6,-23 -6,-23 -6,-43z"/>
   <path class="fil0" d="M2359 5646c51,51 51,51 52,94 -8,25 -19,48 -31,73 -10,-4 -20,-7 -31,-11 3,-51 7,-103 10,-156z"/>
   <path class="fil0" d="M2880 5969c0,17 0,34 0,52 -34,0 -69,0 -104,0 0,-14 0,-28 0,-42 69,-10 69,-10 104,-10z"/>
   <path class="fil0" d="M2724 5104c70,-3 122,6 187,31 0,4 0,7 0,11 -37,0 -75,0 -114,0 0,-10 0,-21 0,-31 -24,0 -48,0 -73,0 0,-4 0,-7 0,-11z"/>
   <path class="fil0" d="M2557 5438c21,20 21,20 23,47 0,11 0,21 -1,32 0,10 0,21 0,32 0,12 0,12 -1,24 -7,0 -14,0 -21,0 -13,-26 -11,-45 -11,-74 0,-9 0,-18 0,-28 1,-23 1,-23 11,-33z"/>
   <path class="fil0" d="M2974 5573c21,5 21,5 42,10 -4,18 -7,35 -11,52 -14,0 -27,0 -41,0 3,-20 6,-41 10,-62z"/>
   <path class="fil0" d="M4620 5198c21,10 21,10 21,10l-21 -10z"/>
  </g>
 </g>
</svg>
