<?xml version="1.0" encoding="UTF-8"?>
<!DOCTYPE svg PUBLIC "-//W3C//DTD SVG 1.1//EN" "http://www.w3.org/Graphics/SVG/1.1/DTD/svg11.dtd">
<!-- Creator: CorelDRAW X7 -->
<svg xmlns="http://www.w3.org/2000/svg" xml:space="preserve" width="8.5in" height="11in" version="1.1" style="shape-rendering:geometricPrecision; text-rendering:geometricPrecision; image-rendering:optimizeQuality; fill-rule:evenodd; clip-rule:evenodd"
viewBox="0 0 8500 11000"
 xmlns:xlink="http://www.w3.org/1999/xlink"
 enable-background="new 0 0 1000 175.2013245">
 <defs>
  <style type="text/css">
   <![CDATA[
    .fil0 {fill:#FEFEFE}
   ]]>
  </style>
 </defs>
 <g id="Layer_x0020_1">
  <metadata id="CorelCorpID_0Corel-Layer"/>
  <g>
   <path class="fil0" d="M1122 5438c-2,-54 -17,-107 -45,-156l-245 -424c-19,-32 -32,-67 -39,-103l-10 18c-61,105 -61,235 0,340l196 339c60,105 60,235 0,340l-11 18c-7,-36 -20,-71 -38,-103l-180 -311 -114 -198c-19,-33 -32,-67 -39,-103l-10 18c-61,104 -61,233 -1,338l0 0 197 341c60,105 60,234 0,339l-11 18c-7,-35 -20,-70 -38,-102l-245 -425c-33,-57 -48,-121 -46,-184 -262,68 -443,214 -443,382 0,235 350,425 783,425 432,0 782,-190 782,-425 0,-168 -181,-314 -443,-382l0 0zm739 724c3,-60 12,-101 28,-148 82,38 188,57 269,57 136,0 213,-44 213,-131 0,-85 -56,-125 -194,-185l-75 -32c-138,-61 -232,-138 -232,-294 0,-168 116,-275 354,-275 95,0 185,13 269,42 -5,59 -15,105 -29,147 -80,-29 -174,-42 -242,-42 -127,0 -186,50 -186,128 0,76 57,120 160,164l79 34c187,80 265,163 265,306 0,169 -128,285 -378,285 -120,0 -219,-17 -301,-56l0 0zm1468 -702l0 735 -148 0 -9 -89c-41,65 -104,106 -207,106 -194,0 -324,-141 -324,-388 0,-259 139,-406 411,-406 105,0 192,12 277,42l0 0zm-161 567l0 -462c-34,-5 -71,-8 -116,-8 -168,0 -246,103 -246,267 0,150 60,256 204,256 64,0 115,-21 158,-53l0 0zm989 -326l0 494 -162 0 0 -466c0,-117 -38,-172 -200,-172 -38,0 -83,4 -127,11l0 627 -162 0 0 -735c103,-25 216,-42 294,-42 270,0 357,105 357,283l0 0zm449 373c47,0 91,-9 126,-22 -4,44 -10,94 -19,137 -44,17 -91,23 -137,23 -157,0 -257,-72 -257,-251l0 -772c50,-16 112,-23 162,-23l0 277 255 0c-3,50 -7,96 -14,139l-241 0 0 360c0,95 47,132 125,132l0 0zm867 -614l0 735 -149 0 -8 -89c-42,65 -105,106 -208,106 -194,0 -323,-141 -323,-388 0,-259 138,-406 410,-406 106,0 193,12 278,42l0 0zm-162 567l0 -462c-34,-5 -70,-8 -116,-8 -168,0 -245,103 -245,267 0,150 60,256 204,256 63,0 115,-21 157,-53l0 0zm990 -326l0 494 -162 0 0 -466c0,-117 -38,-172 -200,-172 -38,0 -84,4 -128,11l0 627 -162 0 0 -735c103,-25 216,-42 294,-42 271,0 358,105 358,283l0 0zm820 -535l0 1029 -148 0 -9 -94c-41,69 -105,111 -211,111 -194,0 -323,-141 -323,-388 0,-259 138,-406 410,-406 43,0 83,5 121,12l0 -242c50,-18 107,-22 160,-22l0 0zm-160 858l0 -453c-43,-8 -87,-14 -130,-14 -160,0 -236,100 -236,267 0,150 60,256 204,256 65,0 118,-22 162,-56l0 0zm973 -144l-516 0c21,131 97,194 241,194 88,0 178,-19 259,-56 -6,43 -15,99 -25,147 -74,34 -152,47 -238,47 -271,0 -402,-150 -402,-401 0,-219 102,-393 359,-393 231,0 331,152 331,337 0,46 -3,82 -9,125l0 0zm-519 -135l365 0c0,-121 -65,-191 -177,-191 -114,0 -175,66 -188,191l0 0zm1085 -321c0,49 -6,108 -15,139 -38,-5 -76,-6 -122,-6 -39,0 -79,3 -119,8l0 630 -162 0 0 -735c70,-24 186,-42 277,-42 50,0 106,2 141,6z"/>
  </g>
 </g>
</svg>
