<?xml version="1.0" encoding="UTF-8"?>
<!DOCTYPE svg PUBLIC "-//W3C//DTD SVG 1.1//EN" "http://www.w3.org/Graphics/SVG/1.1/DTD/svg11.dtd">
<!-- Creator: CorelDRAW X7 -->
<svg xmlns="http://www.w3.org/2000/svg" xml:space="preserve" width="8.5in" height="11in" version="1.1" style="shape-rendering:geometricPrecision; text-rendering:geometricPrecision; image-rendering:optimizeQuality; fill-rule:evenodd; clip-rule:evenodd"
viewBox="0 0 8500 11000"
 xmlns:xlink="http://www.w3.org/1999/xlink">
 <defs>
  <style type="text/css">
   <![CDATA[
    .fil0 {fill:#FEFEFE}
   ]]>
  </style>
 </defs>
 <g id="Layer_x0020_1">
  <metadata id="CorelCorpID_0Corel-Layer"/>
  <g id="_1941104772016">
   <g>
    <polygon class="fil0" points="-8771,12357 17271,12357 17271,-1357 -8771,-1357 "/>
   </g>
   <g>
    <path class="fil0" d="M-1677 2417l-2816 -1101c448,431 954,803 1501,1101l2816 -1101 -1501 1101z"/>
    <path class="fil0" d="M-7549 121c0,0 298,970 1277,2014 433,-334 956,-637 1578,-898l-2855 -1116 0 0z"/>
    <path class="fil0" d="M-7549 4713c0,0 298,-969 1277,-2013 433,333 956,636 1578,897l-2855 1116 0 0z"/>
    <g>
     <path class="fil0" d="M6780 7966l-797 0 0 -873 601 0 0 262 202 0 0 -718 -202 0 0 258 -601 0 0 -831 766 0 0 291 198 0 0 -588 -202 0 0 96 -1402 0 0 170 255 0 0 1958 -256 0 0 172 1639 0 0 -499 -201 0 0 302zm8669 -2103l0 170 260 0 0 1459 -1190 -1629 -596 0 0 170 247 0 82 115 0 1843 -260 0 0 172 735 0 0 -172 -260 0 0 -1549 1278 1760 180 0 0 -2169 256 0 0 -170 -732 0 0 0zm-2963 -41c-631,0 -1146,536 -1146,1195 0,656 515,1191 1146,1191 628,0 1137,-536 1137,-1195 0,-657 -509,-1191 -1136,-1191l-1 0zm1 2163c-427,0 -724,-400 -724,-972 0,-571 300,-969 727,-969 419,0 711,398 711,969 0,572 -293,972 -714,972l0 0zm-9006 -468l-775 -1654 -642 0 0 170 259 0 0 1958 -259 0 0 172 735 0 0 -172 -259 0 0 -1595 857 1833 815 -1793 0 1555 -256 0 0 172 897 0 0 -172 -257 0 0 -1958 257 0 0 -170 -610 0 -762 1654zm5456 449l-756 0 0 -1933 257 0 0 -170 -899 0 0 170 257 0 0 1958 -257 0 0 172 1600 0 0 -499 -202 0 0 302zm1972 0l-759 0 0 -1933 257 0 0 -170 -898 0 0 170 257 0 0 1958 -257 0 0 172 1600 0 0 -499 -200 0 0 302zm-10894 -1933l294 0 -494 816 -531 -816 267 0 0 -170 -929 0 0 170 207 0 700 1076 0 882 -257 0 0 172 898 0 0 -172 -260 0 0 -902 647 -1056 186 0 0 -170 -728 0 0 170zm-4707 916c219,-62 422,-232 422,-504 0,-354 -262,-582 -669,-582l-1056 0 0 170 256 0 0 1958 -256 0 0 172 1117 0c430,0 718,-244 718,-610 0,-361 -259,-545 -532,-604l0 0zm-662 -885l282 0c150,0 401,52 401,394 0,285 -211,413 -419,413l-264 0 0 -807zm295 1902l-295 0 0 -896 295 0c307,0 505,182 505,466 0,317 -272,430 -505,430l0 0zm2773 -1933l261 0 0 1459 -1191 -1629 -595 0 0 170 246 0 81 115 0 1844 -260 0 0 171 735 0 0 -171 -259 0 0 -1550 1279 1760 179 0 0 -2169 256 0 0 -170 -732 0 0 170z"/>
    </g>
   </g>
  </g>
 </g>
</svg>
