<?xml version="1.0" encoding="UTF-8"?>
<!DOCTYPE svg PUBLIC "-//W3C//DTD SVG 1.1//EN" "http://www.w3.org/Graphics/SVG/1.1/DTD/svg11.dtd">
<!-- Creator: CorelDRAW X7 -->
<svg xmlns="http://www.w3.org/2000/svg" xml:space="preserve" width="8.5in" height="11in" version="1.1" style="shape-rendering:geometricPrecision; text-rendering:geometricPrecision; image-rendering:optimizeQuality; fill-rule:evenodd; clip-rule:evenodd"
viewBox="0 0 8500 11000"
 xmlns:xlink="http://www.w3.org/1999/xlink">
 <defs>
  <style type="text/css">
   <![CDATA[
    .fil1 {fill:#FEFEFE}
    .fil0 {fill:white}
   ]]>
  </style>
 </defs>
 <g id="Layer_x0020_1">
  <metadata id="CorelCorpID_0Corel-Layer"/>
  <g id="_1940554499488">
   <polygon class="fil0" points="1916,4885 3541,4885 3541,6510 1916,6510 "/>
   <path class="fil1" d="M4354 5697l-813 -812 0 1625 813 -813zm-1625 0l812 -812 -1625 0 813 812zm-1632 0l819 813 0 -1625 -819 812zm1632 0l-813 813 1625 0 -812 -813z"/>
   <path class="fil1" d="M5219 5761l-366 0 0 360 -180 0 0 -848 180 0 0 349 366 0 0 -349 186 0 0 848 -186 0 0 -360zm627 377c-180,0 -331,-75 -331,-278l180 0c6,93 58,145 157,145 69,0 156,-35 156,-116 0,-70 -58,-87 -151,-116l-64 -18c-133,-40 -267,-93 -267,-244 0,-185 180,-255 337,-255 168,0 308,58 314,250l-186 0c-6,-76 -52,-122 -139,-122 -70,0 -134,35 -134,110 0,64 58,81 174,122l70 17c151,47 244,99 244,238 -6,192 -192,267 -360,267l0 0zm458 -865l296 0c58,0 111,0 169,12 98,23 180,93 180,203 0,111 -70,169 -169,192 116,23 198,81 198,203 0,197 -192,238 -337,238l-331 0 -6 -848zm296 355c82,0 163,-18 163,-117 0,-87 -76,-110 -151,-110l-128 0 0 227 116 0zm18 365c87,0 168,-17 168,-122 0,-104 -70,-122 -157,-122l-145 0 0 244 134 0zm836 145c-273,0 -395,-174 -395,-435 0,-255 139,-447 406,-447 169,0 331,75 337,267l-192 0c-5,-87 -63,-128 -145,-128 -168,0 -214,180 -214,314 0,133 46,296 208,296 82,0 146,-47 157,-134l192 0c-23,198 -174,267 -354,267l0 0z"/>
  </g>
 </g>
</svg>
