<svg xmlns="http://www.w3.org/2000/svg" width="48" height="33" viewBox="0 0 48 33" fill="none">
  <path d="M0 33V29.0033C0 27.8313 0.302372 26.8339 0.907115 26.0109C1.51229 25.1879 2.34229 24.5252 3.39711 24.0228C5.62002 22.9709 7.82921 22.1346 10.0247 21.5139C12.2197 20.8932 14.8598 20.5829 17.9449 20.5829C21.0301 20.5829 23.6647 20.8932 25.8489 21.5139C28.0334 22.1346 30.2485 22.9711 32.4941 24.0234C33.5445 24.5322 34.3717 25.1971 34.9756 26.0179C35.5799 26.8388 35.882 27.8339 35.882 29.0033V33H0ZM41.0627 33V28.9242C41.0627 27.4552 40.7531 26.0801 40.134 24.7989C39.5149 23.5176 38.6639 22.419 37.5812 21.503C38.7894 21.7765 39.9599 22.128 41.0927 22.5575C42.2251 22.9865 43.3579 23.4791 44.4911 24.035C45.5756 24.5807 46.4315 25.28 47.0589 26.133C47.6863 26.9856 48 27.916 48 28.9242V33H41.0627ZM17.9449 14.9569C15.834 14.9569 14.0394 14.2297 12.5611 12.7753C11.0828 11.3208 10.3436 9.55524 10.3436 7.47843C10.3436 5.40163 11.0828 3.63602 12.5611 2.18161C14.0394 0.727203 15.834 0 17.9449 0C20.0559 0 21.8505 0.727203 23.3288 2.18161C24.8071 3.63602 25.5463 5.40163 25.5463 7.47843C25.5463 9.55524 24.8071 11.3208 23.3288 12.7753C21.8505 14.2297 20.0559 14.9569 17.9449 14.9569ZM36.2238 7.45593C36.2238 9.51473 35.4847 11.2743 34.0064 12.7347C32.5285 14.1947 30.7339 14.9247 28.6225 14.9247C28.5441 14.9247 28.4386 14.9157 28.3062 14.8977C28.1737 14.8797 28.0648 14.8598 27.9794 14.8379C28.8604 13.8104 29.5331 12.6672 29.9976 11.4083C30.462 10.1493 30.6942 8.8321 30.6942 7.45657C30.6942 6.09218 30.4465 4.79059 29.9511 3.55179C29.4558 2.31342 28.7985 1.15607 27.9794 0.0797282C28.0883 0.0351486 28.1997 0.0107147 28.3134 0.00642817C28.4275 0.00214168 28.5306 0 28.6225 0C30.7339 0 32.5285 0.72999 34.0064 2.18997C35.4847 3.65038 36.2238 5.4057 36.2238 7.45593ZM2.41288 30.6255H33.4692V29.0097C33.4692 28.3942 33.3158 27.8611 33.0091 27.4106C32.7023 26.9605 32.1492 26.5212 31.3497 26.0925C29.4022 25.0719 27.367 24.2941 25.2443 23.7592C23.1212 23.2242 20.6918 22.9567 17.956 22.9567C15.2129 22.9567 12.7763 23.2242 10.6462 23.7592C8.51564 24.2941 6.47768 25.0719 4.53231 26.0925C3.71625 26.5212 3.159 26.9623 2.86055 27.4158C2.5621 27.8689 2.41288 28.398 2.41288 29.0033V30.6255ZM17.941 12.583C19.3762 12.583 20.6003 12.086 21.6133 11.0919C22.6263 10.0979 23.1328 8.89469 23.1328 7.48229C23.1328 6.07032 22.6276 4.86603 21.6172 3.86942C20.6073 2.87281 19.3845 2.3745 17.9489 2.3745C16.5132 2.3745 15.2889 2.87152 14.276 3.86556C13.263 4.85917 12.7565 6.06217 12.7565 7.47457C12.7565 8.88697 13.2617 10.0915 14.272 11.0881C15.2824 12.0847 16.5054 12.583 17.941 12.583Z" fill="white" fill-opacity="0.6"/>
</svg>