<svg width="48" height="48" viewBox="0 0 60 60" fill="none" xmlns="http://www.w3.org/2000/svg">
<path d="M18.9067 47.3469C13.6804 47.3469 9.2465 45.5152 5.60493 41.8516C1.96336 38.1875 0.142578 33.7387 0.142578 28.5052C0.142578 23.2711 1.96543 18.8176 5.61113 15.1448C9.25735 11.4719 13.6846 9.63546 18.8928 9.63546C21.2688 9.63546 23.5287 10.0493 25.6723 10.877C27.8159 11.7047 29.7142 12.8686 31.3671 14.3688L34.2339 11.4978L35.706 12.9721L32.9167 15.8431C34.4146 17.4985 35.5898 19.3996 36.442 21.5464C37.2943 23.6932 37.7205 26.0081 37.7205 28.4912C37.7205 33.7289 35.8914 38.1808 32.2333 41.847C28.5747 45.5136 24.1325 47.3469 18.9067 47.3469ZM50.5047 47.3469V9.94584L45.546 14.912L43.9964 13.3601L51.5894 5.75568L59.1825 13.3601L57.6329 14.912L52.6741 9.94584V47.3469H50.5047ZM13.4692 4.82453V2.65186H24.4714V4.82453H13.4692ZM18.8881 45.1743C23.5333 45.1743 27.4719 43.5561 30.7039 40.3199C33.9353 37.0831 35.551 33.1387 35.551 28.4865C35.551 23.8339 33.9353 19.891 30.7039 16.6579C27.4719 13.4247 23.5333 11.8081 18.8881 11.8081C14.2424 11.8081 10.3183 13.4263 7.11579 16.6625C3.91328 19.8993 2.31202 23.8437 2.31202 28.4959C2.31202 33.1485 3.91328 37.0914 7.11579 40.3245C10.3183 43.5577 14.2424 45.1743 18.8881 45.1743ZM17.8081 28.8016H19.9775V18.0934H17.8081V28.8016Z" fill="white" fill-opacity="0.6"/>
</svg>
