<svg width="624" height="744" viewBox="0 0 624 744" fill="none" xmlns="http://www.w3.org/2000/svg">
<g clip-path="url(#clip0_1022_866)" filter="url(#filter0_d_1022_866)">
<mask id="mask0_1022_866" style="mask-type:luminance" maskUnits="userSpaceOnUse" x="0" y="0" width="624" height="744">
<path d="M624 0H0V744H624V0Z" fill="white"/>
</mask>
<g mask="url(#mask0_1022_866)">
<path d="M624 0H0V744H624V0Z" fill="white"/>
<path d="M624 0H0V744H624V0Z" fill="#14120F"/>
<path opacity="0.95" d="M623.999 -1547.93H-1082.7V744H623.999V-1547.93Z" fill="url(#paint0_linear_1022_866)"/>
<path d="M-68.5645 706.914L492.124 568.388L749.74 712.162L189.051 850.688L-68.5645 706.914Z" fill="black" fill-opacity="0.25"/>
<path d="M-58.2344 10.4475L502.454 -128.08L756.694 2.02362L196.005 140.551L-58.2344 10.4475Z" fill="black" fill-opacity="0.25"/>
</g>
<rect width="286.2" height="62.4" transform="translate(169 455.084)" fill="white"/>
<path d="M282.131 482.56C282.055 481.887 281.743 481.367 281.193 480.997C280.644 480.623 279.953 480.436 279.119 480.436C278.523 480.436 278.007 480.531 277.571 480.72C277.136 480.905 276.797 481.161 276.556 481.487C276.319 481.809 276.2 482.176 276.2 482.588C276.2 482.934 276.281 483.232 276.442 483.483C276.608 483.734 276.823 483.945 277.088 484.115C277.358 484.281 277.647 484.421 277.955 484.534C278.262 484.643 278.558 484.733 278.843 484.804L280.263 485.173C280.727 485.287 281.203 485.441 281.691 485.635C282.178 485.829 282.63 486.085 283.047 486.402C283.464 486.719 283.8 487.112 284.056 487.581C284.316 488.05 284.446 488.611 284.446 489.264C284.446 490.088 284.233 490.82 283.807 491.459C283.386 492.098 282.772 492.602 281.968 492.972C281.167 493.341 280.199 493.526 279.063 493.526C277.974 493.526 277.031 493.353 276.236 493.007C275.441 492.662 274.818 492.171 274.368 491.537C273.918 490.898 273.67 490.14 273.622 489.264H275.824C275.867 489.79 276.037 490.228 276.335 490.578C276.638 490.924 277.024 491.182 277.493 491.352C277.967 491.518 278.485 491.601 279.048 491.601C279.669 491.601 280.22 491.504 280.703 491.31C281.191 491.111 281.575 490.836 281.854 490.486C282.133 490.131 282.273 489.716 282.273 489.243C282.273 488.812 282.15 488.459 281.904 488.185C281.662 487.91 281.333 487.683 280.916 487.503C280.504 487.323 280.038 487.164 279.517 487.027L277.798 486.558C276.634 486.241 275.71 485.775 275.029 485.159C274.352 484.544 274.013 483.729 274.013 482.716C274.013 481.878 274.24 481.146 274.695 480.521C275.149 479.896 275.765 479.411 276.541 479.065C277.318 478.715 278.194 478.54 279.169 478.54C280.154 478.54 281.023 478.713 281.776 479.058C282.533 479.404 283.13 479.88 283.566 480.486C284.001 481.087 284.228 481.778 284.247 482.56H282.131ZM291.6 493.504C290.525 493.504 289.599 493.275 288.823 492.815C288.051 492.351 287.455 491.7 287.033 490.862C286.617 490.02 286.408 489.032 286.408 487.901C286.408 486.783 286.617 485.798 287.033 484.946C287.455 484.094 288.042 483.429 288.795 482.95C289.552 482.472 290.438 482.233 291.451 482.233C292.066 482.233 292.663 482.335 293.241 482.538C293.818 482.742 294.337 483.062 294.796 483.497C295.255 483.933 295.617 484.499 295.883 485.195C296.148 485.886 296.28 486.726 296.28 487.716V488.469H287.608V486.878H294.199C294.199 486.319 294.086 485.824 293.858 485.394C293.631 484.958 293.312 484.615 292.9 484.364C292.492 484.113 292.014 483.987 291.465 483.987C290.868 483.987 290.348 484.134 289.903 484.428C289.462 484.716 289.121 485.095 288.88 485.564C288.643 486.028 288.525 486.532 288.525 487.077V488.32C288.525 489.049 288.653 489.669 288.908 490.18C289.169 490.692 289.531 491.082 289.995 491.352C290.459 491.618 291.001 491.75 291.621 491.75C292.024 491.75 292.391 491.693 292.722 491.58C293.054 491.461 293.34 491.286 293.581 491.054C293.823 490.822 294.008 490.536 294.135 490.195L296.145 490.557C295.984 491.149 295.696 491.667 295.279 492.112C294.867 492.553 294.349 492.896 293.724 493.142C293.103 493.384 292.395 493.504 291.6 493.504ZM300.76 486.807V493.284H298.637V482.375H300.675V484.151H300.81C301.061 483.573 301.454 483.109 301.989 482.759C302.529 482.408 303.208 482.233 304.027 482.233C304.771 482.233 305.422 482.389 305.98 482.702C306.539 483.01 306.972 483.469 307.28 484.08C307.588 484.69 307.742 485.446 307.742 486.345V493.284H305.618V486.601C305.618 485.81 305.412 485.192 305 484.747C304.588 484.297 304.022 484.073 303.303 484.073C302.81 484.073 302.372 484.179 301.989 484.392C301.61 484.605 301.309 484.918 301.087 485.33C300.869 485.737 300.76 486.229 300.76 486.807ZM314.673 493.497C313.793 493.497 313.007 493.272 312.316 492.823C311.629 492.368 311.089 491.722 310.696 490.884C310.308 490.041 310.114 489.03 310.114 487.851C310.114 486.672 310.31 485.663 310.703 484.825C311.101 483.987 311.646 483.346 312.337 482.901C313.028 482.456 313.812 482.233 314.688 482.233C315.365 482.233 315.909 482.347 316.321 482.574C316.738 482.796 317.06 483.057 317.287 483.355C317.519 483.653 317.699 483.916 317.827 484.144H317.955V478.739H320.078V493.284H318.004V491.587H317.827C317.699 491.819 317.514 492.084 317.273 492.382C317.036 492.68 316.709 492.941 316.293 493.163C315.876 493.386 315.336 493.497 314.673 493.497ZM315.142 491.686C315.753 491.686 316.269 491.525 316.691 491.203C317.117 490.877 317.439 490.424 317.656 489.847C317.879 489.269 317.99 488.597 317.99 487.83C317.99 487.072 317.881 486.409 317.664 485.841C317.446 485.273 317.126 484.83 316.705 484.513C316.283 484.196 315.762 484.037 315.142 484.037C314.503 484.037 313.97 484.203 313.544 484.534C313.118 484.866 312.796 485.318 312.578 485.891C312.365 486.464 312.259 487.11 312.259 487.83C312.259 488.559 312.368 489.215 312.585 489.797C312.803 490.379 313.125 490.841 313.551 491.182C313.982 491.518 314.512 491.686 315.142 491.686Z" fill="black"/>
<path d="M346.85 494.784L332.35 494.784L339.6 477.573L346.85 494.784ZM344.6 493.284L339.6 481.434L334.6 493.284L338.292 493.284L339.6 487.861L340.907 493.284L344.6 493.284Z" fill="black"/>
<g filter="url(#filter1_d_1022_866)">
<rect x="85" y="231.942" width="454.8" height="189.6" fill="white" fill-opacity="0.14" shape-rendering="crispEdges"/>
<rect x="85.5" y="232.442" width="453.8" height="188.6" stroke="white" stroke-opacity="0.2" shape-rendering="crispEdges"/>
</g>
<path d="M93.7443 203.924C93.6676 203.276 93.3565 202.773 92.8111 202.415C92.2656 202.058 91.5966 201.879 90.804 201.879C90.2244 201.879 89.7173 201.972 89.2827 202.16C88.8523 202.347 88.5156 202.605 88.2727 202.933C88.0341 203.261 87.9148 203.634 87.9148 204.052C87.9148 204.401 87.9979 204.702 88.1641 204.953C88.3345 205.2 88.5518 205.407 88.8161 205.573C89.0803 205.735 89.3572 205.869 89.647 205.976C89.9368 206.078 90.2031 206.161 90.446 206.225L91.7756 206.583C92.1165 206.673 92.4957 206.796 92.9134 206.954C93.3352 207.112 93.7379 207.327 94.1214 207.599C94.5092 207.868 94.8288 208.213 95.0803 208.635C95.3317 209.057 95.4574 209.575 95.4574 210.188C95.4574 210.896 95.272 211.535 94.9013 212.106C94.5348 212.677 93.9979 213.131 93.2905 213.467C92.5874 213.804 91.733 213.972 90.7273 213.972C89.7898 213.972 88.978 213.821 88.2919 213.518C87.6101 213.216 87.0732 212.794 86.6811 212.253C86.2933 211.712 86.0739 211.083 86.0227 210.367H87.6591C87.7017 210.862 87.8679 211.271 88.1577 211.594C88.4517 211.914 88.8224 212.153 89.2699 212.31C89.7216 212.464 90.2074 212.54 90.7273 212.54C91.3324 212.54 91.8757 212.442 92.3572 212.246C92.8388 212.046 93.2202 211.769 93.5014 211.415C93.7827 211.058 93.9233 210.64 93.9233 210.163C93.9233 209.728 93.8018 209.374 93.5589 209.102C93.3161 208.829 92.9964 208.607 92.6001 208.437C92.2038 208.266 91.7756 208.117 91.3153 207.989L89.7045 207.529C88.6818 207.235 87.8722 206.815 87.2756 206.27C86.679 205.724 86.3807 205.011 86.3807 204.129C86.3807 203.396 86.5788 202.756 86.9751 202.211C87.3757 201.661 87.9126 201.235 88.5859 200.933C89.2635 200.626 90.0199 200.472 90.8551 200.472C91.6989 200.472 92.4489 200.624 93.1051 200.926C93.7614 201.224 94.2813 201.634 94.6648 202.153C95.0526 202.673 95.2571 203.263 95.2784 203.924H93.7443ZM101.976 213.947C101.03 213.947 100.214 213.738 99.5275 213.32C98.8457 212.898 98.3194 212.31 97.9487 211.556C97.5822 210.798 97.399 209.915 97.399 208.91C97.399 207.904 97.5822 207.018 97.9487 206.251C98.3194 205.479 98.835 204.879 99.4956 204.448C100.16 204.013 100.936 203.796 101.822 203.796C102.334 203.796 102.839 203.881 103.337 204.052C103.836 204.222 104.29 204.499 104.699 204.883C105.108 205.262 105.434 205.765 105.677 206.391C105.92 207.018 106.041 207.789 106.041 208.705V209.344H98.4728V208.04H104.507C104.507 207.487 104.396 206.992 104.175 206.558C103.957 206.123 103.646 205.78 103.241 205.528C102.841 205.277 102.368 205.151 101.822 205.151C101.221 205.151 100.702 205.3 100.263 205.599C99.8279 205.893 99.4934 206.276 99.2591 206.749C99.0247 207.222 98.9075 207.729 98.9075 208.271V209.14C98.9075 209.881 99.0353 210.51 99.291 211.026C99.551 211.537 99.911 211.927 100.371 212.195C100.831 212.46 101.366 212.592 101.976 212.592C102.372 212.592 102.73 212.536 103.05 212.425C103.373 212.31 103.653 212.14 103.887 211.914C104.121 211.684 104.302 211.398 104.43 211.058L105.888 211.467C105.734 211.961 105.476 212.396 105.114 212.771C104.752 213.141 104.305 213.431 103.772 213.64C103.239 213.844 102.64 213.947 101.976 213.947ZM109.844 207.836V213.742H108.336V203.924H109.793V205.458H109.921C110.151 204.96 110.501 204.559 110.969 204.256C111.438 203.95 112.043 203.796 112.785 203.796C113.449 203.796 114.031 203.933 114.53 204.205C115.028 204.474 115.416 204.883 115.693 205.433C115.97 205.978 116.108 206.668 116.108 207.504V213.742H114.6V207.606C114.6 206.835 114.4 206.234 113.999 205.803C113.599 205.369 113.049 205.151 112.35 205.151C111.868 205.151 111.438 205.256 111.059 205.464C110.684 205.673 110.388 205.978 110.17 206.379C109.953 206.779 109.844 207.265 109.844 207.836ZM122.572 213.947C121.754 213.947 121.032 213.74 120.406 213.327C119.779 212.909 119.289 212.321 118.935 211.562C118.582 210.8 118.405 209.898 118.405 208.859C118.405 207.827 118.582 206.933 118.935 206.174C119.289 205.415 119.781 204.83 120.412 204.416C121.043 204.003 121.771 203.796 122.598 203.796C123.237 203.796 123.742 203.903 124.113 204.116C124.488 204.325 124.773 204.563 124.969 204.832C125.17 205.096 125.325 205.313 125.436 205.484H125.564V200.651H127.072V213.742H125.615V212.234H125.436C125.325 212.413 125.168 212.638 124.963 212.911C124.759 213.18 124.467 213.42 124.087 213.634C123.708 213.842 123.203 213.947 122.572 213.947ZM122.777 212.592C123.382 212.592 123.893 212.434 124.311 212.119C124.729 211.799 125.046 211.358 125.263 210.795C125.481 210.229 125.589 209.575 125.589 208.833C125.589 208.1 125.483 207.459 125.27 206.909C125.057 206.355 124.741 205.925 124.324 205.618C123.906 205.307 123.391 205.151 122.777 205.151C122.138 205.151 121.605 205.315 121.179 205.643C120.757 205.967 120.44 206.408 120.227 206.967C120.018 207.521 119.913 208.143 119.913 208.833C119.913 209.532 120.02 210.167 120.233 210.738C120.45 211.305 120.77 211.756 121.192 212.093C121.618 212.425 122.146 212.592 122.777 212.592ZM135.107 213.742V203.924H136.565V205.458H136.692C136.897 204.934 137.227 204.527 137.683 204.237C138.139 203.943 138.687 203.796 139.326 203.796C139.974 203.796 140.513 203.943 140.943 204.237C141.378 204.527 141.717 204.934 141.96 205.458H142.062C142.313 204.951 142.69 204.548 143.193 204.25C143.696 203.947 144.299 203.796 145.002 203.796C145.88 203.796 146.598 204.071 147.156 204.621C147.714 205.166 147.994 206.016 147.994 207.171V213.742H146.485V207.171C146.485 206.447 146.287 205.929 145.891 205.618C145.494 205.307 145.028 205.151 144.491 205.151C143.8 205.151 143.266 205.36 142.886 205.778C142.507 206.191 142.317 206.715 142.317 207.35V213.742H140.783V207.018C140.783 206.46 140.602 206.01 140.24 205.669C139.878 205.324 139.411 205.151 138.84 205.151C138.448 205.151 138.082 205.256 137.741 205.464C137.404 205.673 137.131 205.963 136.923 206.334C136.718 206.7 136.616 207.124 136.616 207.606V213.742H135.107ZM154.74 213.947C153.854 213.947 153.076 213.736 152.407 213.314C151.743 212.892 151.223 212.302 150.848 211.543C150.477 210.785 150.292 209.898 150.292 208.884C150.292 207.862 150.477 206.969 150.848 206.206C151.223 205.443 151.743 204.851 152.407 204.429C153.076 204.007 153.854 203.796 154.74 203.796C155.627 203.796 156.402 204.007 157.067 204.429C157.736 204.851 158.256 205.443 158.627 206.206C159.002 206.969 159.189 207.862 159.189 208.884C159.189 209.898 159.002 210.785 158.627 211.543C158.256 212.302 157.736 212.892 157.067 213.314C156.402 213.736 155.627 213.947 154.74 213.947ZM154.74 212.592C155.414 212.592 155.968 212.419 156.402 212.074C156.837 211.729 157.159 211.275 157.368 210.712C157.576 210.15 157.681 209.54 157.681 208.884C157.681 208.228 157.576 207.616 157.368 207.05C157.159 206.483 156.837 206.025 156.402 205.675C155.968 205.326 155.414 205.151 154.74 205.151C154.067 205.151 153.513 205.326 153.078 205.675C152.644 206.025 152.322 206.483 152.113 207.05C151.904 207.616 151.8 208.228 151.8 208.884C151.8 209.54 151.904 210.15 152.113 210.712C152.322 211.275 152.644 211.729 153.078 212.074C153.513 212.419 154.067 212.592 154.74 212.592ZM163.001 207.836V213.742H161.492V203.924H162.949V205.458H163.077C163.307 204.96 163.657 204.559 164.126 204.256C164.594 203.95 165.199 203.796 165.941 203.796C166.606 203.796 167.187 203.933 167.686 204.205C168.184 204.474 168.572 204.883 168.849 205.433C169.126 205.978 169.265 206.668 169.265 207.504V213.742H167.756V207.606C167.756 206.835 167.556 206.234 167.155 205.803C166.755 205.369 166.205 205.151 165.506 205.151C165.025 205.151 164.594 205.256 164.215 205.464C163.84 205.673 163.544 205.978 163.327 206.379C163.109 206.779 163.001 207.265 163.001 207.836ZM176.138 213.947C175.192 213.947 174.376 213.738 173.69 213.32C173.008 212.898 172.482 212.31 172.111 211.556C171.744 210.798 171.561 209.915 171.561 208.91C171.561 207.904 171.744 207.018 172.111 206.251C172.482 205.479 172.997 204.879 173.658 204.448C174.322 204.013 175.098 203.796 175.984 203.796C176.496 203.796 177.001 203.881 177.499 204.052C177.998 204.222 178.452 204.499 178.861 204.883C179.27 205.262 179.596 205.765 179.839 206.391C180.082 207.018 180.203 207.789 180.203 208.705V209.344H172.635V208.04H178.669C178.669 207.487 178.558 206.992 178.337 206.558C178.119 206.123 177.808 205.78 177.403 205.528C177.003 205.277 176.53 205.151 175.984 205.151C175.384 205.151 174.864 205.3 174.425 205.599C173.99 205.893 173.656 206.276 173.421 206.749C173.187 207.222 173.07 207.729 173.07 208.271V209.14C173.07 209.881 173.197 210.51 173.453 211.026C173.713 211.537 174.073 211.927 174.533 212.195C174.994 212.46 175.528 212.592 176.138 212.592C176.534 212.592 176.892 212.536 177.212 212.425C177.536 212.31 177.815 212.14 178.049 211.914C178.283 211.684 178.464 211.398 178.592 211.058L180.05 211.467C179.896 211.961 179.638 212.396 179.276 212.771C178.914 213.141 178.467 213.431 177.934 213.64C177.401 213.844 176.803 213.947 176.138 213.947ZM183.171 217.424C182.915 217.424 182.687 217.403 182.487 217.36C182.286 217.322 182.148 217.283 182.071 217.245L182.455 215.915C182.821 216.009 183.145 216.043 183.426 216.018C183.708 215.992 183.957 215.866 184.174 215.641C184.396 215.419 184.598 215.059 184.781 214.56L185.063 213.793L181.432 203.924H183.068L185.779 211.748H185.881L188.591 203.924H190.227L186.06 215.174C185.872 215.681 185.64 216.101 185.363 216.433C185.086 216.77 184.764 217.019 184.398 217.181C184.036 217.343 183.627 217.424 183.171 217.424Z" fill="white"/>
<path d="M496.973 210.052C496.973 211.126 496.779 212.054 496.391 212.836C496.003 213.618 495.471 214.221 494.795 214.645C494.119 215.07 493.347 215.282 492.478 215.282C491.61 215.282 490.838 215.07 490.162 214.645C489.485 214.221 488.954 213.618 488.566 212.836C488.178 212.054 487.984 211.126 487.984 210.052C487.984 208.978 488.178 208.05 488.566 207.268C488.954 206.485 489.485 205.882 490.162 205.458C490.838 205.034 491.61 204.822 492.478 204.822C493.347 204.822 494.119 205.034 494.795 205.458C495.471 205.882 496.003 206.485 496.391 207.268C496.779 208.05 496.973 208.978 496.973 210.052ZM495.78 210.052C495.78 209.17 495.632 208.426 495.337 207.819C495.045 207.213 494.649 206.754 494.149 206.442C493.652 206.131 493.095 205.975 492.478 205.975C491.862 205.975 491.303 206.131 490.803 206.442C490.306 206.754 489.91 207.213 489.615 207.819C489.323 208.426 489.177 209.17 489.177 210.052C489.177 210.933 489.323 211.677 489.615 212.284C489.91 212.89 490.306 213.349 490.803 213.661C491.303 213.973 491.862 214.128 492.478 214.128C493.095 214.128 493.652 213.973 494.149 213.661C494.649 213.349 495.045 212.89 495.337 212.284C495.632 211.677 495.78 210.933 495.78 210.052ZM500.06 210.549V215.143H498.887V207.506H500.02V208.699H500.12C500.299 208.312 500.57 208 500.935 207.765C501.3 207.526 501.77 207.407 502.347 207.407C502.864 207.407 503.316 207.513 503.704 207.725C504.092 207.934 504.394 208.252 504.609 208.68C504.824 209.104 504.932 209.641 504.932 210.29V215.143H503.759V210.37C503.759 209.77 503.603 209.303 503.292 208.968C502.98 208.63 502.552 208.461 502.009 208.461C501.634 208.461 501.3 208.542 501.005 208.704C500.713 208.867 500.483 209.104 500.314 209.415C500.145 209.727 500.06 210.105 500.06 210.549ZM507.076 215.143V207.506H508.21V208.66H508.289C508.428 208.282 508.68 207.975 509.045 207.74C509.41 207.505 509.821 207.387 510.278 207.387C510.364 207.387 510.472 207.389 510.601 207.392C510.73 207.395 510.828 207.4 510.894 207.407V208.6C510.855 208.59 510.763 208.575 510.621 208.555C510.482 208.532 510.334 208.52 510.178 208.52C509.807 208.52 509.476 208.598 509.184 208.754C508.896 208.907 508.667 209.119 508.498 209.39C508.332 209.659 508.25 209.965 508.25 210.31V215.143H507.076ZM514.532 215.322C514.048 215.322 513.609 215.23 513.215 215.048C512.82 214.863 512.507 214.596 512.275 214.248C512.043 213.896 511.927 213.472 511.927 212.975C511.927 212.537 512.013 212.183 512.186 211.911C512.358 211.636 512.588 211.421 512.877 211.265C513.165 211.109 513.483 210.993 513.831 210.917C514.183 210.837 514.536 210.774 514.89 210.728C515.354 210.668 515.731 210.623 516.019 210.594C516.311 210.56 516.523 210.506 516.655 210.43C516.791 210.353 516.859 210.221 516.859 210.032V209.992C516.859 209.501 516.725 209.12 516.456 208.849C516.191 208.577 515.789 208.441 515.248 208.441C514.688 208.441 514.249 208.564 513.931 208.809C513.613 209.054 513.389 209.316 513.26 209.594L512.146 209.197C512.345 208.733 512.61 208.371 512.941 208.113C513.276 207.851 513.641 207.669 514.035 207.566C514.433 207.46 514.824 207.407 515.208 207.407C515.454 207.407 515.735 207.437 516.054 207.496C516.375 207.553 516.685 207.67 516.983 207.849C517.285 208.028 517.535 208.298 517.734 208.66C517.933 209.021 518.032 209.505 518.032 210.111V215.143H516.859V214.108H516.799C516.72 214.274 516.587 214.452 516.402 214.64C516.216 214.829 515.969 214.99 515.661 215.123C515.353 215.255 514.976 215.322 514.532 215.322ZM514.711 214.268C515.175 214.268 515.566 214.176 515.885 213.994C516.206 213.812 516.448 213.577 516.61 213.288C516.776 213 516.859 212.697 516.859 212.378V211.305C516.809 211.364 516.7 211.419 516.531 211.469C516.365 211.515 516.173 211.556 515.954 211.593C515.739 211.626 515.528 211.656 515.323 211.682C515.121 211.706 514.957 211.725 514.831 211.742C514.526 211.782 514.241 211.846 513.976 211.936C513.714 212.022 513.502 212.153 513.339 212.329C513.18 212.501 513.101 212.736 513.101 213.035C513.101 213.442 513.251 213.751 513.553 213.959C513.858 214.165 514.244 214.268 514.711 214.268ZM520.174 215.143V207.506H521.307V208.699H521.407C521.566 208.292 521.823 207.975 522.177 207.75C522.532 207.521 522.958 207.407 523.455 207.407C523.959 207.407 524.378 207.521 524.713 207.75C525.051 207.975 525.314 208.292 525.503 208.699H525.583C525.779 208.305 526.072 207.992 526.463 207.76C526.854 207.524 527.323 207.407 527.87 207.407C528.553 207.407 529.111 207.621 529.545 208.048C529.979 208.472 530.197 209.134 530.197 210.032V215.143H529.023V210.032C529.023 209.468 528.869 209.066 528.561 208.824C528.253 208.582 527.89 208.461 527.472 208.461C526.935 208.461 526.519 208.623 526.224 208.948C525.929 209.269 525.782 209.677 525.782 210.171V215.143H524.589V209.912C524.589 209.478 524.448 209.129 524.166 208.863C523.884 208.595 523.521 208.461 523.077 208.461C522.772 208.461 522.487 208.542 522.222 208.704C521.96 208.867 521.748 209.092 521.586 209.381C521.427 209.666 521.347 209.995 521.347 210.37V215.143H520.174ZM532.342 218.006V207.506H533.475V208.719H533.615C533.701 208.587 533.82 208.418 533.973 208.212C534.128 208.003 534.35 207.818 534.639 207.655C534.93 207.49 535.325 207.407 535.822 207.407C536.465 207.407 537.032 207.568 537.522 207.889C538.013 208.211 538.396 208.666 538.671 209.256C538.946 209.846 539.083 210.542 539.083 211.344C539.083 212.153 538.946 212.854 538.671 213.447C538.396 214.037 538.014 214.495 537.527 214.819C537.04 215.141 536.478 215.302 535.842 215.302C535.351 215.302 534.959 215.22 534.664 215.058C534.369 214.892 534.142 214.705 533.982 214.496C533.823 214.284 533.701 214.108 533.615 213.969H533.515V218.006H532.342ZM533.495 211.324C533.495 211.901 533.58 212.41 533.749 212.851C533.918 213.288 534.165 213.631 534.49 213.88C534.814 214.125 535.212 214.248 535.683 214.248C536.173 214.248 536.583 214.118 536.911 213.86C537.242 213.598 537.491 213.247 537.656 212.806C537.825 212.362 537.91 211.868 537.91 211.324C537.91 210.787 537.827 210.304 537.661 209.873C537.499 209.439 537.252 209.095 536.921 208.844C536.593 208.588 536.18 208.461 535.683 208.461C535.205 208.461 534.804 208.582 534.48 208.824C534.155 209.062 533.91 209.397 533.744 209.828C533.578 210.256 533.495 210.754 533.495 211.324Z" fill="white" fill-opacity="0.8"/>
<path d="M191.707 308.201H194.879V310.561H191.707V315.842H188.816V310.561H178.441V308.857L188.629 293.092H191.707V308.201ZM181.645 308.201H188.816V296.936L188.348 297.811L181.645 308.201ZM200.238 304.436L201.379 293.092H213.051V295.904H203.816L203.176 301.967C203.624 301.706 204.16 301.477 204.785 301.279C205.41 301.081 206.134 300.982 206.957 300.982C208.009 300.982 208.952 301.165 209.785 301.529C210.618 301.894 211.327 302.404 211.91 303.061C212.493 303.727 212.941 304.529 213.254 305.467C213.566 306.404 213.723 307.446 213.723 308.592C213.723 309.675 213.577 310.68 213.285 311.607C212.993 312.535 212.556 313.331 211.973 313.998C211.379 314.675 210.634 315.206 209.738 315.592C208.842 315.967 207.79 316.154 206.582 316.154C205.655 316.154 204.78 316.024 203.957 315.764C203.134 315.503 202.405 315.113 201.77 314.592C201.124 314.071 200.592 313.415 200.176 312.623C199.77 311.831 199.514 310.91 199.41 309.857H202.16C202.337 311.149 202.811 312.128 203.582 312.795C204.363 313.462 205.363 313.795 206.582 313.795C207.27 313.795 207.879 313.675 208.41 313.436C208.941 313.186 209.389 312.831 209.754 312.373C210.108 311.925 210.374 311.383 210.551 310.748C210.738 310.113 210.832 309.404 210.832 308.623C210.832 307.915 210.728 307.253 210.52 306.639C210.322 306.024 210.03 305.488 209.645 305.029C209.259 304.581 208.785 304.227 208.223 303.967C207.66 303.706 207.014 303.576 206.285 303.576C205.806 303.576 205.389 303.613 205.035 303.686C204.691 303.748 204.379 303.842 204.098 303.967C203.816 304.092 203.551 304.243 203.301 304.42C203.061 304.597 202.811 304.8 202.551 305.029L200.238 304.436ZM225.754 315.17C225.754 316.212 225.509 317.274 225.02 318.357C224.53 319.441 223.868 320.352 223.035 321.092L221.238 320.107C221.738 319.378 222.092 318.602 222.301 317.779C222.509 316.956 222.613 316.102 222.613 315.217V312.42H225.754V315.17ZM251.598 315.842H236.691V313.764L244.145 305.482C244.811 304.743 245.368 304.087 245.816 303.514C246.264 302.941 246.624 302.41 246.895 301.92C247.165 301.441 247.358 300.988 247.473 300.561C247.587 300.123 247.645 299.675 247.645 299.217C247.645 298.654 247.551 298.128 247.363 297.639C247.186 297.139 246.926 296.706 246.582 296.342C246.228 295.977 245.801 295.691 245.301 295.482C244.811 295.264 244.254 295.154 243.629 295.154C242.868 295.154 242.207 295.264 241.645 295.482C241.092 295.701 240.634 296.008 240.27 296.404C239.895 296.811 239.613 297.3 239.426 297.873C239.249 298.446 239.16 299.087 239.16 299.795H236.254C236.254 298.837 236.421 297.936 236.754 297.092C237.087 296.238 237.572 295.493 238.207 294.857C238.832 294.222 239.598 293.717 240.504 293.342C241.421 292.967 242.462 292.779 243.629 292.779C244.702 292.779 245.665 292.941 246.52 293.264C247.384 293.576 248.113 294.014 248.707 294.576C249.301 295.139 249.754 295.805 250.066 296.576C250.389 297.347 250.551 298.186 250.551 299.092C250.551 299.769 250.436 300.441 250.207 301.107C249.978 301.764 249.671 302.415 249.285 303.061C248.889 303.706 248.431 304.347 247.91 304.982C247.4 305.607 246.858 306.232 246.285 306.857L240.176 313.482H251.598V315.842ZM267.52 293.076V295.67H267.27C265.895 295.67 264.728 295.868 263.77 296.264C262.811 296.649 262.02 297.17 261.395 297.826C260.738 298.514 260.238 299.331 259.895 300.279C259.561 301.227 259.363 302.201 259.301 303.201C259.572 302.878 259.884 302.581 260.238 302.311C260.592 302.029 260.978 301.785 261.395 301.576C261.801 301.378 262.238 301.222 262.707 301.107C263.186 300.982 263.686 300.92 264.207 300.92C265.342 300.92 266.322 301.139 267.145 301.576C267.967 302.003 268.645 302.571 269.176 303.279C269.707 303.988 270.098 304.79 270.348 305.686C270.598 306.581 270.723 307.493 270.723 308.42C270.723 309.482 270.572 310.482 270.27 311.42C269.978 312.357 269.535 313.175 268.941 313.873C268.348 314.581 267.608 315.139 266.723 315.545C265.848 315.951 264.832 316.154 263.676 316.154C262.509 316.154 261.483 315.92 260.598 315.451C259.712 314.982 258.967 314.373 258.363 313.623C257.686 312.8 257.181 311.842 256.848 310.748C256.514 309.644 256.348 308.54 256.348 307.436V306.076C256.348 304.18 256.572 302.316 257.02 300.482C257.467 298.649 258.342 297.081 259.645 295.779C260.54 294.883 261.629 294.212 262.91 293.764C264.191 293.305 265.645 293.076 267.27 293.076H267.52ZM263.738 303.326C263.249 303.326 262.775 303.404 262.316 303.561C261.858 303.717 261.431 303.936 261.035 304.217C260.639 304.498 260.29 304.837 259.988 305.232C259.686 305.628 259.447 306.066 259.27 306.545V307.514C259.27 308.514 259.389 309.404 259.629 310.186C259.868 310.956 260.191 311.607 260.598 312.139C261.004 312.67 261.473 313.076 262.004 313.357C262.535 313.628 263.092 313.764 263.676 313.764C264.353 313.764 264.952 313.633 265.473 313.373C265.993 313.113 266.436 312.753 266.801 312.295C267.155 311.837 267.421 311.29 267.598 310.654C267.785 310.008 267.879 309.311 267.879 308.561C267.879 307.894 267.796 307.248 267.629 306.623C267.462 305.988 267.207 305.425 266.863 304.936C266.52 304.446 266.087 304.055 265.566 303.764C265.046 303.472 264.436 303.326 263.738 303.326ZM277.113 304.436L278.254 293.092H289.926V295.904H280.691L280.051 301.967C280.499 301.706 281.035 301.477 281.66 301.279C282.285 301.081 283.009 300.982 283.832 300.982C284.884 300.982 285.827 301.165 286.66 301.529C287.493 301.894 288.202 302.404 288.785 303.061C289.368 303.727 289.816 304.529 290.129 305.467C290.441 306.404 290.598 307.446 290.598 308.592C290.598 309.675 290.452 310.68 290.16 311.607C289.868 312.535 289.431 313.331 288.848 313.998C288.254 314.675 287.509 315.206 286.613 315.592C285.717 315.967 284.665 316.154 283.457 316.154C282.53 316.154 281.655 316.024 280.832 315.764C280.009 315.503 279.28 315.113 278.645 314.592C277.999 314.071 277.467 313.415 277.051 312.623C276.645 311.831 276.389 310.91 276.285 309.857H279.035C279.212 311.149 279.686 312.128 280.457 312.795C281.238 313.462 282.238 313.795 283.457 313.795C284.145 313.795 284.754 313.675 285.285 313.436C285.816 313.186 286.264 312.831 286.629 312.373C286.983 311.925 287.249 311.383 287.426 310.748C287.613 310.113 287.707 309.404 287.707 308.623C287.707 307.915 287.603 307.253 287.395 306.639C287.197 306.024 286.905 305.488 286.52 305.029C286.134 304.581 285.66 304.227 285.098 303.967C284.535 303.706 283.889 303.576 283.16 303.576C282.681 303.576 282.264 303.613 281.91 303.686C281.566 303.748 281.254 303.842 280.973 303.967C280.691 304.092 280.426 304.243 280.176 304.42C279.936 304.597 279.686 304.8 279.426 305.029L277.113 304.436ZM300.332 313.967C300.332 313.352 300.52 312.826 300.895 312.389C301.27 311.951 301.837 311.732 302.598 311.732C303.348 311.732 303.915 311.951 304.301 312.389C304.697 312.816 304.895 313.342 304.895 313.967C304.895 314.581 304.697 315.097 304.301 315.514C303.905 315.93 303.337 316.139 302.598 316.139C301.848 316.139 301.28 315.93 300.895 315.514C300.52 315.087 300.332 314.571 300.332 313.967ZM328.801 307.139C328.801 308.587 328.634 309.873 328.301 310.998C327.967 312.113 327.488 313.05 326.863 313.811C326.238 314.581 325.473 315.165 324.566 315.561C323.66 315.956 322.624 316.154 321.457 316.154C320.301 316.154 319.264 315.962 318.348 315.576C317.431 315.18 316.655 314.592 316.02 313.811C315.384 313.05 314.9 312.113 314.566 310.998C314.233 309.873 314.066 308.587 314.066 307.139V301.811C314.066 300.363 314.233 299.081 314.566 297.967C314.9 296.842 315.384 295.894 316.02 295.123C316.645 294.352 317.41 293.769 318.316 293.373C319.233 292.967 320.27 292.764 321.426 292.764C322.592 292.764 323.629 292.967 324.535 293.373C325.452 293.769 326.228 294.352 326.863 295.123C327.488 295.894 327.967 296.842 328.301 297.967C328.634 299.081 328.801 300.363 328.801 301.811V307.139ZM316.973 306.561L325.832 299.764C325.749 299.014 325.598 298.352 325.379 297.779C325.171 297.196 324.884 296.712 324.52 296.326C324.165 295.93 323.728 295.633 323.207 295.436C322.697 295.238 322.103 295.139 321.426 295.139C320.738 295.139 320.129 295.248 319.598 295.467C319.077 295.675 318.634 295.982 318.27 296.389C317.832 296.899 317.504 297.561 317.285 298.373C317.077 299.175 316.973 300.107 316.973 301.17V304.982C316.973 305.243 316.973 305.503 316.973 305.764C316.973 306.024 316.973 306.29 316.973 306.561ZM325.895 307.748V304.529C325.895 304.373 325.895 304.076 325.895 303.639C325.895 303.191 325.895 302.821 325.895 302.529L317.051 309.295C317.145 310.055 317.311 310.727 317.551 311.311C317.79 311.883 318.103 312.357 318.488 312.732C318.842 313.087 319.27 313.357 319.77 313.545C320.27 313.722 320.832 313.811 321.457 313.811C322.113 313.811 322.697 313.712 323.207 313.514C323.717 313.316 324.15 313.029 324.504 312.654C324.983 312.144 325.332 311.477 325.551 310.654C325.78 309.831 325.895 308.863 325.895 307.748ZM348.02 307.139C348.02 308.587 347.853 309.873 347.52 310.998C347.186 312.113 346.707 313.05 346.082 313.811C345.457 314.581 344.691 315.165 343.785 315.561C342.879 315.956 341.842 316.154 340.676 316.154C339.52 316.154 338.483 315.962 337.566 315.576C336.65 315.18 335.874 314.592 335.238 313.811C334.603 313.05 334.118 312.113 333.785 310.998C333.452 309.873 333.285 308.587 333.285 307.139V301.811C333.285 300.363 333.452 299.081 333.785 297.967C334.118 296.842 334.603 295.894 335.238 295.123C335.863 294.352 336.629 293.769 337.535 293.373C338.452 292.967 339.488 292.764 340.645 292.764C341.811 292.764 342.848 292.967 343.754 293.373C344.671 293.769 345.447 294.352 346.082 295.123C346.707 295.894 347.186 296.842 347.52 297.967C347.853 299.081 348.02 300.363 348.02 301.811V307.139ZM336.191 306.561L345.051 299.764C344.967 299.014 344.816 298.352 344.598 297.779C344.389 297.196 344.103 296.712 343.738 296.326C343.384 295.93 342.947 295.633 342.426 295.436C341.915 295.238 341.322 295.139 340.645 295.139C339.957 295.139 339.348 295.248 338.816 295.467C338.296 295.675 337.853 295.982 337.488 296.389C337.051 296.899 336.723 297.561 336.504 298.373C336.296 299.175 336.191 300.107 336.191 301.17V304.982C336.191 305.243 336.191 305.503 336.191 305.764C336.191 306.024 336.191 306.29 336.191 306.561ZM345.113 307.748V304.529C345.113 304.373 345.113 304.076 345.113 303.639C345.113 303.191 345.113 302.821 345.113 302.529L336.27 309.295C336.363 310.055 336.53 310.727 336.77 311.311C337.009 311.883 337.322 312.357 337.707 312.732C338.061 313.087 338.488 313.357 338.988 313.545C339.488 313.722 340.051 313.811 340.676 313.811C341.332 313.811 341.915 313.712 342.426 313.514C342.936 313.316 343.368 313.029 343.723 312.654C344.202 312.144 344.551 311.477 344.77 310.654C344.999 309.831 345.113 308.863 345.113 307.748ZM386.457 293.092L386.488 308.498C386.488 309.561 386.301 310.555 385.926 311.482C385.551 312.41 385.035 313.217 384.379 313.904C383.723 314.602 382.941 315.154 382.035 315.561C381.129 315.956 380.134 316.154 379.051 316.154C377.947 316.154 376.941 315.956 376.035 315.561C375.129 315.165 374.353 314.618 373.707 313.92C373.061 313.232 372.556 312.425 372.191 311.498C371.827 310.561 371.639 309.561 371.629 308.498L371.66 293.092H374.41L374.473 308.498C374.483 309.175 374.587 309.826 374.785 310.451C374.993 311.076 375.29 311.628 375.676 312.107C376.051 312.587 376.52 312.972 377.082 313.264C377.655 313.555 378.311 313.701 379.051 313.701C379.79 313.701 380.441 313.561 381.004 313.279C381.566 312.988 382.04 312.597 382.426 312.107C382.801 311.628 383.087 311.076 383.285 310.451C383.483 309.826 383.592 309.175 383.613 308.498L383.66 293.092H386.457ZM403.301 310.092C403.301 309.394 403.139 308.805 402.816 308.326C402.504 307.847 402.098 307.441 401.598 307.107C401.098 306.785 400.546 306.514 399.941 306.295C399.348 306.076 398.775 305.878 398.223 305.701C397.421 305.441 396.603 305.128 395.77 304.764C394.947 304.389 394.197 303.941 393.52 303.42C392.832 302.889 392.27 302.264 391.832 301.545C391.405 300.816 391.191 299.962 391.191 298.982C391.191 298.003 391.405 297.128 391.832 296.357C392.27 295.587 392.837 294.936 393.535 294.404C394.233 293.873 395.025 293.472 395.91 293.201C396.796 292.92 397.686 292.779 398.582 292.779C399.572 292.779 400.525 292.946 401.441 293.279C402.358 293.602 403.171 294.061 403.879 294.654C404.587 295.248 405.155 295.967 405.582 296.811C406.009 297.654 406.233 298.597 406.254 299.639H403.285C403.202 298.982 403.04 298.389 402.801 297.857C402.561 297.316 402.243 296.852 401.848 296.467C401.452 296.081 400.978 295.785 400.426 295.576C399.884 295.357 399.27 295.248 398.582 295.248C398.03 295.248 397.488 295.326 396.957 295.482C396.436 295.639 395.973 295.873 395.566 296.186C395.15 296.498 394.816 296.883 394.566 297.342C394.327 297.8 394.207 298.331 394.207 298.936C394.217 299.592 394.384 300.149 394.707 300.607C395.03 301.055 395.441 301.436 395.941 301.748C396.431 302.061 396.962 302.321 397.535 302.529C398.118 302.738 398.665 302.92 399.176 303.076C400.02 303.337 400.863 303.654 401.707 304.029C402.551 304.394 403.322 304.863 404.02 305.436C404.707 305.967 405.259 306.618 405.676 307.389C406.103 308.16 406.316 309.05 406.316 310.061C406.316 311.081 406.087 311.972 405.629 312.732C405.181 313.493 404.598 314.123 403.879 314.623C403.16 315.133 402.348 315.519 401.441 315.779C400.535 316.029 399.629 316.154 398.723 316.154C397.639 316.154 396.572 315.972 395.52 315.607C394.478 315.243 393.572 314.717 392.801 314.029C392.113 313.436 391.566 312.743 391.16 311.951C390.764 311.149 390.551 310.258 390.52 309.279H393.473C393.566 309.988 393.759 310.618 394.051 311.17C394.342 311.712 394.717 312.17 395.176 312.545C395.634 312.93 396.16 313.222 396.754 313.42C397.358 313.607 398.014 313.701 398.723 313.701C399.285 313.701 399.837 313.633 400.379 313.498C400.931 313.352 401.421 313.128 401.848 312.826C402.275 312.535 402.624 312.165 402.895 311.717C403.165 311.258 403.301 310.717 403.301 310.092ZM410.316 315.842V293.092H415.582C416.467 293.102 417.301 293.196 418.082 293.373C418.874 293.54 419.603 293.779 420.27 294.092C421.197 294.519 422.014 295.081 422.723 295.779C423.441 296.467 424.014 297.264 424.441 298.17C424.827 298.941 425.118 299.785 425.316 300.701C425.525 301.618 425.634 302.597 425.645 303.639V305.311C425.645 306.311 425.546 307.258 425.348 308.154C425.16 309.05 424.884 309.873 424.52 310.623C424.145 311.404 423.671 312.113 423.098 312.748C422.525 313.383 421.884 313.925 421.176 314.373C420.426 314.842 419.577 315.201 418.629 315.451C417.691 315.701 416.676 315.831 415.582 315.842H410.316ZM413.254 295.467V313.482H415.582C416.415 313.472 417.171 313.368 417.848 313.17C418.535 312.972 419.145 312.691 419.676 312.326C420.238 311.951 420.723 311.493 421.129 310.951C421.546 310.399 421.874 309.785 422.113 309.107C422.322 308.555 422.478 307.962 422.582 307.326C422.686 306.68 422.743 306.008 422.754 305.311V303.607C422.743 302.899 422.681 302.222 422.566 301.576C422.462 300.92 422.301 300.311 422.082 299.748C421.801 299.019 421.421 298.363 420.941 297.779C420.473 297.186 419.895 296.706 419.207 296.342C418.717 296.071 418.171 295.863 417.566 295.717C416.962 295.561 416.301 295.477 415.582 295.467H413.254ZM444.566 308.998C444.431 310.05 444.16 311.019 443.754 311.904C443.348 312.779 442.822 313.529 442.176 314.154C441.52 314.79 440.743 315.285 439.848 315.639C438.962 315.982 437.973 316.154 436.879 316.154C435.941 316.154 435.087 316.024 434.316 315.764C433.556 315.493 432.879 315.123 432.285 314.654C431.681 314.186 431.16 313.633 430.723 312.998C430.296 312.363 429.941 311.67 429.66 310.92C429.368 310.17 429.15 309.383 429.004 308.561C428.868 307.738 428.796 306.904 428.785 306.061V302.889C428.796 302.045 428.868 301.212 429.004 300.389C429.15 299.566 429.368 298.779 429.66 298.029C429.941 297.279 430.296 296.587 430.723 295.951C431.16 295.305 431.681 294.748 432.285 294.279C432.879 293.811 433.556 293.446 434.316 293.186C435.077 292.915 435.931 292.779 436.879 292.779C438.014 292.779 439.03 292.956 439.926 293.311C440.822 293.654 441.592 294.144 442.238 294.779C442.884 295.425 443.4 296.196 443.785 297.092C444.181 297.988 444.441 298.977 444.566 300.061H441.676C441.582 299.373 441.421 298.732 441.191 298.139C440.962 297.545 440.655 297.024 440.27 296.576C439.884 296.128 439.41 295.779 438.848 295.529C438.296 295.269 437.639 295.139 436.879 295.139C436.191 295.139 435.582 295.253 435.051 295.482C434.53 295.701 434.082 296.003 433.707 296.389C433.322 296.774 432.999 297.222 432.738 297.732C432.488 298.243 432.285 298.785 432.129 299.357C431.973 299.93 431.858 300.519 431.785 301.123C431.723 301.717 431.691 302.295 431.691 302.857V306.061C431.691 306.623 431.723 307.206 431.785 307.811C431.858 308.404 431.973 308.988 432.129 309.561C432.285 310.144 432.488 310.691 432.738 311.201C432.988 311.712 433.306 312.16 433.691 312.545C434.077 312.941 434.53 313.253 435.051 313.482C435.572 313.701 436.181 313.811 436.879 313.811C437.639 313.811 438.296 313.691 438.848 313.451C439.41 313.212 439.884 312.873 440.27 312.436C440.655 312.008 440.962 311.503 441.191 310.92C441.421 310.326 441.582 309.686 441.676 308.998H444.566Z" fill="white"/>
<rect x="222.301" y="338.342" width="179" height="26" rx="13" stroke="white" stroke-opacity="0.5"/>
<path d="M239.779 356.342H238.149L241.813 346.16H243.588L247.252 356.342H245.621L242.743 348.009H242.663L239.779 356.342ZM240.053 352.355H245.343V353.647H240.053V352.355ZM249.946 346.16L252.779 354.453H252.894L255.728 346.16H257.388L253.724 356.342H251.949L248.285 346.16H249.946ZM260.079 356.342H258.449L262.113 346.16H263.888L267.552 356.342H265.921L263.043 348.009H262.963L260.079 356.342ZM260.353 352.355H265.643V353.647H260.353V352.355ZM271.958 346.16V356.342H270.422V346.16H271.958ZM275.596 356.342V346.16H277.132V355.019H281.745V356.342H275.596ZM286.278 356.342H284.647L288.311 346.16H290.086L293.75 356.342H292.119L289.241 348.009H289.161L286.278 356.342ZM286.551 352.355H291.841V353.647H286.551V352.355ZM296.62 356.342V346.16H300.349C301.071 346.16 301.67 346.279 302.144 346.518C302.618 346.753 302.972 347.073 303.208 347.477C303.443 347.878 303.561 348.331 303.561 348.835C303.561 349.259 303.483 349.617 303.327 349.909C303.171 350.197 302.962 350.429 302.7 350.605C302.442 350.777 302.157 350.903 301.845 350.982V351.082C302.183 351.098 302.513 351.208 302.835 351.41C303.159 351.609 303.428 351.892 303.64 352.26C303.852 352.628 303.958 353.075 303.958 353.602C303.958 354.123 303.836 354.59 303.59 355.004C303.348 355.415 302.974 355.742 302.467 355.984C301.96 356.222 301.312 356.342 300.523 356.342H296.62ZM298.156 355.024H300.374C301.11 355.024 301.637 354.882 301.955 354.597C302.273 354.312 302.432 353.955 302.432 353.528C302.432 353.206 302.351 352.911 302.188 352.643C302.026 352.374 301.794 352.161 301.492 352.002C301.194 351.843 300.839 351.763 300.428 351.763H298.156V355.024ZM298.156 350.565H300.215C300.559 350.565 300.869 350.499 301.144 350.366C301.423 350.233 301.643 350.048 301.806 349.809C301.971 349.567 302.054 349.282 302.054 348.954C302.054 348.533 301.907 348.18 301.612 347.895C301.317 347.61 300.864 347.468 300.254 347.468H298.156V350.565ZM307.18 356.342V346.16H308.717V355.019H313.33V356.342H307.18ZM316.483 356.342V346.16H322.866V347.482H318.019V350.585H322.533V351.902H318.019V355.019H322.926V356.342H316.483ZM339.641 346.16V356.342H338.229L333.054 348.874H332.96V356.342H331.423V346.16H332.845L338.026 353.637H338.12V346.16H339.641ZM352.127 351.251C352.127 352.338 351.928 353.273 351.53 354.055C351.132 354.834 350.587 355.434 349.894 355.855C349.205 356.272 348.421 356.481 347.543 356.481C346.661 356.481 345.874 356.272 345.181 355.855C344.492 355.434 343.948 354.832 343.551 354.05C343.153 353.268 342.954 352.335 342.954 351.251C342.954 350.164 343.153 349.231 343.551 348.452C343.948 347.67 344.492 347.07 345.181 346.652C345.874 346.231 346.661 346.021 347.543 346.021C348.421 346.021 349.205 346.231 349.894 346.652C350.587 347.07 351.132 347.67 351.53 348.452C351.928 349.231 352.127 350.164 352.127 351.251ZM350.605 351.251C350.605 350.422 350.471 349.725 350.203 349.158C349.938 348.588 349.573 348.157 349.109 347.865C348.648 347.57 348.126 347.423 347.543 347.423C346.956 347.423 346.433 347.57 345.972 347.865C345.511 348.157 345.147 348.588 344.878 349.158C344.613 349.725 344.48 350.422 344.48 351.251C344.48 352.079 344.613 352.779 344.878 353.349C345.147 353.916 345.511 354.347 345.972 354.642C346.433 354.933 346.956 355.079 347.543 355.079C348.126 355.079 348.648 354.933 349.109 354.642C349.573 354.347 349.938 353.916 350.203 353.349C350.471 352.779 350.605 352.079 350.605 351.251ZM357.313 356.342L354.489 346.16H356.105L358.088 354.045H358.183L360.246 346.16H361.847L363.91 354.05H364.004L365.983 346.16H367.604L364.775 356.342H363.229L361.086 348.715H361.007L358.864 356.342H357.313Z" fill="#8BB280"/>
<path d="M386.387 347.73L386.281 347.837L378.468 355.65L378.361 355.756L374.216 351.61L374.321 351.504L374.887 350.939L374.992 350.833L378.361 354.202L385.504 347.06L385.61 346.954L386.387 347.73Z" fill="#8BB280" stroke="#8BB280" stroke-width="0.3"/>
</g>
<defs>
<filter id="filter0_d_1022_866" x="-30" y="-26" width="684" height="804" filterUnits="userSpaceOnUse" color-interpolation-filters="sRGB">
<feFlood flood-opacity="0" result="BackgroundImageFix"/>
<feColorMatrix in="SourceAlpha" type="matrix" values="0 0 0 0 0 0 0 0 0 0 0 0 0 0 0 0 0 0 127 0" result="hardAlpha"/>
<feOffset dy="4"/>
<feGaussianBlur stdDeviation="15"/>
<feComposite in2="hardAlpha" operator="out"/>
<feColorMatrix type="matrix" values="0 0 0 0 0 0 0 0 0 0 0 0 0 0 0 0 0 0 0.5 0"/>
<feBlend mode="normal" in2="BackgroundImageFix" result="effect1_dropShadow_1022_866"/>
<feBlend mode="normal" in="SourceGraphic" in2="effect1_dropShadow_1022_866" result="shape"/>
</filter>
<filter id="filter1_d_1022_866" x="65" y="215.942" width="494.8" height="229.6" filterUnits="userSpaceOnUse" color-interpolation-filters="sRGB">
<feFlood flood-opacity="0" result="BackgroundImageFix"/>
<feColorMatrix in="SourceAlpha" type="matrix" values="0 0 0 0 0 0 0 0 0 0 0 0 0 0 0 0 0 0 127 0" result="hardAlpha"/>
<feOffset dy="4"/>
<feGaussianBlur stdDeviation="10"/>
<feComposite in2="hardAlpha" operator="out"/>
<feColorMatrix type="matrix" values="0 0 0 0 0 0 0 0 0 0 0 0 0 0 0 0 0 0 0.4 0"/>
<feBlend mode="normal" in2="BackgroundImageFix" result="effect1_dropShadow_1022_866"/>
<feBlend mode="normal" in="SourceGraphic" in2="effect1_dropShadow_1022_866" result="shape"/>
</filter>
<linearGradient id="paint0_linear_1022_866" x1="-228.168" y1="-617.154" x2="1507.53" y2="1732" gradientUnits="userSpaceOnUse">
<stop/>
<stop offset="1" stop-color="#666666"/>
</linearGradient>
<clipPath id="clip0_1022_866">
<rect width="624" height="744" fill="white"/>
</clipPath>
</defs>
</svg>
