<svg xmlns="http://www.w3.org/2000/svg" width="48" height="48" viewBox="0 0 48 48" fill="none">
  <path d="M24 29.6805L18.3195 24L24 18.3195L29.6805 24L24 29.6805ZM17.9645 14.2722L13.8462 10.1538L24 0L34.1538 10.1538L30.0355 14.2722L24 8.23669L17.9645 14.2722ZM10.1538 34.1538L0 24L10.1538 13.8462L14.2722 17.9645L8.23669 24L14.2722 30.0355L10.1538 34.1538ZM37.8462 34.1538L33.7278 30.0355L39.7633 24L33.7278 17.9645L37.8462 13.8462L48 24L37.8462 34.1538ZM24 48L13.8462 37.8462L17.9645 33.7278L24 39.7633L30.0355 33.7278L34.1538 37.8462L24 48Z" fill="white" fill-opacity="0.6"/>
</svg>