<svg width="48" height="48" viewBox="2.5 4 44 44" fill="none" xmlns="http://www.w3.org/2000/svg">
<path d="M22.5 47.389C19.7118 47.389 17.105 46.8734 14.6797 45.8421C12.2543 44.8109 10.1441 43.3977 8.34896 41.6025C6.55382 39.8074 5.14062 37.6972 4.10937 35.2718C3.07812 32.8465 2.5625 30.2397 2.5625 27.4515C2.5625 24.6633 3.07812 22.0565 4.10937 19.6312C5.14062 17.2058 6.55382 15.0956 8.34896 13.3005C10.1441 11.5053 12.2543 10.0921 14.6797 9.06087C17.105 8.02962 19.7118 7.514 22.5 7.514C23.7222 7.514 24.8967 7.61903 26.0234 7.8291C27.1502 8.03917 28.2674 8.31608 29.375 8.65983V11.4098C29.375 12.6702 28.9262 13.7492 28.0286 14.6468C27.1311 15.5444 26.0521 15.9932 24.7917 15.9932H20.2083V20.5765C20.2083 21.2258 19.9887 21.7701 19.5495 22.2093C19.1102 22.6485 18.566 22.8682 17.9167 22.8682H13.3333V27.4515H27.0833C27.7326 27.4515 28.2769 27.6711 28.7161 28.1104C29.1554 28.5496 29.375 29.0939 29.375 29.7432V36.6182H31.6667C32.6979 36.6182 33.605 36.9237 34.388 37.5348C35.171 38.1459 35.7153 38.9098 36.0208 39.8265C37.5104 38.2223 38.6849 36.3604 39.5443 34.2406C40.4036 32.1208 40.8333 29.8578 40.8333 27.4515V26.3057C40.8333 25.9619 40.7951 25.58 40.7188 25.1598H42.3229C42.3993 25.58 42.4375 25.9619 42.4375 26.3057V27.4515C42.4375 30.2397 41.9219 32.8465 40.8906 35.2718C39.8594 37.6972 38.4462 39.8074 36.651 41.6025C34.8559 43.3977 32.7457 44.8109 30.3203 45.8421C27.895 46.8734 25.2882 47.389 22.5 47.389ZM20.2083 45.6702V41.2015C18.9479 41.2015 17.8689 40.7527 16.9714 39.8551C16.0738 38.9576 15.625 37.8786 15.625 36.6182V34.3265L4.625 23.3265C4.51042 24.014 4.40538 24.7015 4.3099 25.389C4.21441 26.0765 4.16667 26.764 4.16667 27.4515C4.16667 32.1112 5.70399 36.1694 8.77865 39.626C11.8533 43.0826 15.6632 45.0973 20.2083 45.6702ZM35.6771 20.5765C35.1806 20.5765 34.77 20.4142 34.4453 20.0895C34.1207 19.7649 33.9583 19.3543 33.9583 18.8577V12.2119C33.9583 11.7154 34.1207 11.3048 34.4453 10.9801C34.77 10.6555 35.1806 10.4932 35.6771 10.4932H36.25V8.2015C36.25 7.09386 36.6224 6.16764 37.3672 5.42285C38.112 4.67806 39.0382 4.30566 40.1458 4.30566C41.2535 4.30566 42.1797 4.67806 42.9245 5.42285C43.6693 6.16764 44.0417 7.09386 44.0417 8.2015V10.4932H44.6146C45.1111 10.4932 45.5217 10.6555 45.8464 10.9801C46.171 11.3048 46.3333 11.7154 46.3333 12.2119V18.8577C46.3333 19.3543 46.171 19.7649 45.8464 20.0895C45.5217 20.4142 45.1111 20.5765 44.6146 20.5765H35.6771ZM37.8542 10.4932H42.4375V8.2015C42.4375 7.55219 42.2179 7.00792 41.7786 6.56869C41.3394 6.12945 40.7951 5.90983 40.1458 5.90983C39.4965 5.90983 38.9523 6.12945 38.513 6.56869C38.0738 7.00792 37.8542 7.55219 37.8542 8.2015V10.4932Z" fill="white" fill-opacity="0.6"/>
</svg>
