<svg width="50" height="50" viewBox="0 0 50 50" fill="none" xmlns="http://www.w3.org/2000/svg">
<path d="M21.1331 35.5764L37.6665 19.0431L36.3331 17.7098L21.1331 32.9098L13.5331 25.3098L12.1998 26.6431L21.1331 35.5764ZM25.0111 48.9098C21.8036 48.9098 18.7874 48.3011 15.9625 47.0838C13.1376 45.8664 10.6805 44.2142 8.59114 42.1271C6.50136 40.04 4.84714 37.586 3.62847 34.7651C2.40936 31.9438 1.7998 28.9291 1.7998 25.7211C1.7998 22.5135 2.40847 19.4973 3.6258 16.6724C4.84314 13.8475 6.49536 11.3904 8.58247 9.3011C10.6696 7.21132 13.1236 5.5571 15.9445 4.33843C18.7658 3.11932 21.7805 2.50977 24.9885 2.50977C28.196 2.50977 31.2122 3.11843 34.0371 4.33577C36.862 5.5531 39.3191 7.20532 41.4085 9.29243C43.4982 11.3795 45.1525 13.8335 46.3711 16.6544C47.5902 19.4758 48.1998 22.4904 48.1998 25.6984C48.1998 28.906 47.5911 31.9222 46.3738 34.7471C45.1565 37.572 43.5042 40.0291 41.4171 42.1184C39.33 44.2082 36.876 45.8624 34.0551 47.0811C31.2338 48.3002 28.2191 48.9098 25.0111 48.9098ZM24.9998 47.0431C30.9554 47.0431 35.9998 44.9764 40.1331 40.8431C44.2665 36.7098 46.3331 31.6653 46.3331 25.7098C46.3331 19.7542 44.2665 14.7098 40.1331 10.5764C35.9998 6.4431 30.9554 4.37643 24.9998 4.37643C19.0442 4.37643 13.9998 6.4431 9.86647 10.5764C5.73314 14.7098 3.66647 19.7542 3.66647 25.7098C3.66647 31.6653 5.73314 36.7098 9.86647 40.8431C13.9998 44.9764 19.0442 47.0431 24.9998 47.0431Z" fill="white" fill-opacity="0.6"/>
</svg>
