<svg xmlns="http://www.w3.org/2000/svg" width="48" height="48" viewBox="0 0 48 48" fill="none">
  <path d="M24 48C18.5621 48 13.6973 46.3644 9.40547 43.0933C5.11411 39.8221 2.27684 35.5629 0.893684 30.3158H3.44968C4.82274 34.8762 7.40084 38.5425 11.184 41.3147C14.9667 44.0874 19.2387 45.4737 24 45.4737C28.2366 45.4737 32.0909 44.2956 35.5629 41.9394C39.0349 39.5832 41.8008 36.5507 43.8606 32.8421H35.3684V30.3158H48V42.9474H45.4737V34.98C43.1709 38.86 40.1459 42 36.3985 44.4C32.6512 46.8 28.5183 48 24 48ZM0 17.6842V5.05263H2.52632V13.02C4.82905 9.14 7.85411 6 11.6015 3.6C15.3488 1.2 19.4817 0 24 0C29.4379 0 34.3027 1.63558 38.5945 4.90674C42.8859 8.17789 45.7232 12.4371 47.1063 17.6842H44.5503C43.1773 13.1238 40.5992 9.45747 36.816 6.68526C33.0333 3.91263 28.7613 2.52632 24 2.52632C19.7634 2.52632 15.9091 3.70442 12.4371 6.06063C8.96505 8.41684 6.19916 11.4493 4.13937 15.1579H12.6316V17.6842H0Z" fill="white" fill-opacity="0.6"/>
</svg>