<svg width="48" height="48" viewBox="0 0 48 48" fill="none" xmlns="http://www.w3.org/2000/svg">
<path d="M20 46.8735C14.8889 45.2735 10.6333 42.118 7.2333 37.4069C3.8333 32.6958 2.1333 27.3624 2.1333 21.4069V7.5402L20 0.873535L37.8666 7.5402V21.4069C37.8666 27.3624 36.1666 32.6958 32.7666 37.4069C29.3666 42.118 25.1111 45.2735 20 46.8735ZM20 44.8735C24.6222 43.4069 28.4444 40.4735 31.4666 36.0735C34.4889 31.6735 36 26.7846 36 21.4069V8.80687L20 2.87354L3.99997 8.80687V21.4069C3.99997 26.7846 5.51108 31.6735 8.5333 36.0735C11.5555 40.4735 15.3777 43.4069 20 44.8735Z" fill="white" fill-opacity="0.6"/>
</svg>
